<?xml version="1.0" standalone="no"?>
<!DOCTYPE svg PUBLIC "-//W3C//DTD SVG 20010904//EN"
 "http://www.w3.org/TR/2001/REC-SVG-20010904/DTD/svg10.dtd">
<svg version="1.0" xmlns="http://www.w3.org/2000/svg"
 width="4168.000000pt" height="4168.000000pt" viewBox="0 0 4168.000000 4168.000000"
 preserveAspectRatio="xMidYMid meet">
<metadata>
Created by potrace 1.14, written by Peter Selinger 2001-2017
</metadata>
<g transform="translate(0.000000,4168.000000) scale(0.100000,-0.100000)"
fill="#000000" stroke="none">
<path d="M20227 36174 c-1 -1 -60 -4 -132 -8 -71 -4 -150 -8 -175 -11 -25 -2
-81 -6 -125 -10 -44 -3 -87 -8 -95 -10 -8 -2 -44 -7 -80 -10 -36 -3 -92 -10
-125 -15 -109 -16 -158 -23 -240 -35 -27 -4 -94 -15 -148 -26 -53 -10 -110
-21 -125 -24 -267 -48 -697 -163 -1022 -273 -221 -75 -637 -238 -718 -282 -9
-5 -44 -21 -77 -35 -320 -142 -829 -430 -1155 -653 -224 -153 -533 -387 -706
-534 -201 -171 -522 -478 -690 -659 -74 -81 -229 -255 -266 -300 -20 -24 -44
-54 -55 -66 -25 -30 -86 -103 -100 -122 -72 -93 -135 -176 -168 -221 -22 -30
-42 -57 -45 -60 -3 -3 -37 -50 -75 -105 -38 -55 -83 -120 -100 -145 -62 -91
-226 -354 -298 -480 -10 -19 -40 -71 -65 -115 -54 -95 -292 -570 -292 -582 0
-5 -13 -36 -29 -69 -15 -32 -43 -95 -61 -139 -18 -44 -39 -96 -47 -115 -8 -19
-18 -44 -22 -55 -5 -11 -14 -33 -21 -50 -22 -55 -118 -328 -154 -440 -72 -225
-156 -530 -182 -665 -3 -14 -7 -33 -10 -42 -5 -17 -7 -25 -25 -113 -16 -77
-19 -91 -44 -230 -13 -71 -26 -150 -30 -175 -3 -25 -8 -56 -10 -70 -2 -14 -7
-45 -10 -70 -4 -25 -8 -56 -10 -70 -6 -41 -17 -133 -20 -171 -3 -33 -11 -115
-20 -199 -2 -19 -7 -89 -11 -155 -3 -66 -8 -145 -10 -175 -10 -160 -3 -1092
11 -1520 13 -417 44 -1025 60 -1190 3 -25 7 -83 10 -130 8 -123 15 -210 20
-250 5 -43 13 -134 20 -220 3 -35 7 -76 9 -90 3 -14 8 -59 11 -100 4 -41 9
-83 11 -93 2 -10 6 -46 9 -80 3 -34 7 -73 10 -87 2 -14 6 -47 9 -75 3 -27 8
-70 11 -94 6 -47 3 -47 -44 -3 -39 38 -187 158 -271 221 -52 39 -100 75 -105
79 -18 15 -160 108 -175 115 -8 4 -33 18 -55 32 -111 70 -182 68 -304 -8 -191
-119 -313 -244 -382 -390 -25 -55 -32 -83 -35 -150 -4 -90 -2 -97 125 -447
180 -493 471 -1374 471 -1423 0 -4 -35 -4 -77 0 -158 14 -344 5 -483 -22 -14
-3 -38 -8 -55 -11 -191 -33 -464 -150 -623 -265 -36 -27 -69 -45 -72 -41 -4 4
-12 32 -19 62 -30 124 -110 263 -205 353 -209 198 -532 198 -781 -2 -80 -64
-87 -71 -159 -166 -76 -101 -166 -297 -166 -362 0 -23 -17 -6 -25 24 -8 35
-152 323 -169 341 -11 11 -22 4 -64 -40 -27 -29 -65 -72 -83 -95 -19 -23 -38
-42 -42 -42 -8 -1 -2 162 8 220 2 13 6 47 10 74 3 28 9 75 15 105 5 30 12 69
14 85 3 17 14 63 25 103 15 58 16 72 5 72 -22 0 -243 -76 -334 -115 -286 -122
-554 -302 -799 -535 -59 -57 -194 -206 -223 -248 l-16 -23 -21 29 c-11 17 -21
33 -21 36 0 3 -16 30 -37 59 -191 274 -399 456 -681 597 -95 48 -306 131 -327
129 -3 0 -29 4 -58 10 -97 20 -121 22 -217 23 -92 0 -118 -3 -207 -22 -227
-51 -412 -224 -467 -436 -49 -192 15 -411 167 -566 100 -102 196 -164 361
-232 l38 -16 -63 -46 c-157 -114 -288 -298 -411 -573 -46 -100 -47 -111 -10
-111 15 -1 50 -3 77 -6 28 -2 94 -5 148 -6 53 -1 97 -3 97 -3 0 -1 -11 -15
-25 -31 -47 -53 -115 -161 -150 -238 -99 -218 -90 -390 26 -506 22 -22 37 -40
32 -41 -4 0 -16 -2 -25 -4 -9 -2 -36 -6 -60 -9 -38 -5 -65 -10 -118 -20 -71
-14 -196 -54 -251 -82 -97 -49 -141 -106 -157 -206 -17 -108 32 -212 158 -338
114 -115 236 -197 455 -310 152 -78 213 -103 353 -146 l103 -31 -83 -43 c-188
-97 -307 -169 -438 -263 -47 -33 -87 -63 -90 -67 -3 -3 -36 -31 -75 -62 -534
-431 -818 -1047 -763 -1653 7 -73 35 -221 47 -242 5 -10 133 58 400 212 80 47
343 226 411 280 170 136 322 279 488 460 l82 90 -29 -65 c-74 -169 -102 -295
-96 -435 5 -96 9 -119 35 -189 49 -131 146 -234 281 -299 64 -31 86 -46 82
-57 -15 -43 -44 -151 -51 -190 -20 -124 -1 -395 38 -525 71 -240 145 -401 341
-740 123 -212 206 -367 250 -461 65 -143 66 -146 90 -221 13 -40 26 -73 29
-73 3 0 28 28 55 61 28 34 55 67 62 74 6 6 41 55 77 109 l66 97 1 -103 c2
-379 58 -578 204 -737 87 -93 166 -119 265 -86 78 26 158 93 253 213 l49 63
14 -25 c20 -39 186 -309 200 -326 7 -8 19 -26 26 -40 7 -14 39 -63 70 -110
l57 -86 2 -121 c1 -67 5 -141 9 -165 5 -23 11 -63 15 -87 7 -47 50 -203 65
-236 5 -11 21 -48 36 -82 49 -114 88 -117 275 -23 l77 39 15 -23 c15 -22 14
-24 -20 -40 -137 -65 -296 -206 -348 -310 l-27 -54 63 -60 c82 -77 106 -96
206 -166 89 -62 253 -149 348 -185 33 -13 69 -27 80 -32 18 -7 63 -20 148 -42
20 -5 119 -26 152 -32 17 -3 59 -8 95 -11 103 -9 103 -16 2 -119 -134 -137
-215 -268 -265 -430 -39 -127 -40 -147 -3 -192 91 -112 199 -188 341 -240 22
-8 47 -16 55 -18 8 -1 34 -8 56 -14 197 -53 503 -15 701 87 44 22 53 24 67 12
11 -9 15 -22 11 -39 -9 -42 -19 -102 -30 -181 -9 -61 -22 -196 -30 -295 -3
-38 -7 -95 -10 -125 -3 -30 -7 -84 -10 -120 -9 -108 -16 -184 -21 -211 -2 -14
-6 -43 -9 -64 -11 -87 -17 -124 -36 -205 -11 -47 -21 -89 -23 -95 -13 -44 -18
-67 -14 -71 7 -6 96 18 203 55 50 17 95 33 100 34 6 2 27 11 49 20 21 9 41 17
43 17 6 0 185 90 233 117 41 23 168 103 222 138 l36 24 -43 -87 c-76 -154
-104 -260 -99 -374 7 -181 74 -261 216 -259 106 1 274 71 505 210 56 34 104
61 107 61 3 0 -12 -35 -34 -77 -121 -241 -163 -430 -138 -613 29 -206 183
-380 398 -450 74 -25 252 -35 335 -19 169 31 347 121 486 244 77 68 182 207
225 298 10 20 22 37 28 37 5 0 89 -44 185 -99 97 -54 195 -109 219 -121 23
-13 42 -27 42 -30 0 -4 -20 -29 -45 -56 -102 -110 -203 -270 -239 -379 -24
-68 -32 -194 -16 -249 14 -52 62 -102 116 -121 38 -14 220 -15 241 -2 5 4 25
9 43 12 37 7 129 35 230 70 l66 23 15 -26 c140 -238 251 -459 307 -610 l38
-103 37 40 c126 136 281 381 380 601 22 47 43 94 48 105 5 11 16 38 24 60 l15
40 -6 -40 c-3 -22 -9 -53 -13 -70 -16 -63 -11 -268 8 -360 21 -98 56 -201 77
-226 35 -39 251 -66 354 -44 14 3 37 7 53 10 43 8 116 35 187 68 66 31 204
118 215 137 3 5 11 10 16 10 10 0 8 -27 -6 -120 -2 -14 -6 -45 -9 -70 -3 -25
-8 -56 -11 -70 -3 -14 -8 -38 -10 -55 -9 -47 -55 -233 -65 -259 l-8 -23 71 19
c79 21 221 65 252 78 11 5 61 25 110 46 170 71 360 180 513 293 l79 58 144
-37 c79 -20 150 -39 158 -41 11 -4 14 -45 16 -209 1 -113 7 -230 14 -260 40
-192 125 -331 234 -378 91 -39 203 22 324 178 47 60 193 294 193 309 0 4 5 12
11 18 8 8 28 -8 72 -60 59 -69 234 -245 275 -277 10 -8 39 -32 63 -52 65 -55
138 -108 148 -108 5 0 14 -6 20 -14 25 -30 219 -137 351 -193 77 -33 247 -88
297 -98 15 -2 39 -7 53 -10 14 -3 39 -7 55 -10 17 -3 44 -8 60 -11 17 -3 107
-8 200 -9 150 -3 226 2 315 20 14 2 39 7 55 11 53 10 195 55 200 63 6 10 -168
265 -302 444 -96 128 -123 161 -180 225 -13 14 -23 27 -23 29 0 3 39 2 88 -1
48 -3 143 -8 212 -11 169 -8 167 -7 180 -58 32 -124 103 -318 200 -547 158
-374 261 -678 263 -777 1 -26 22 -10 131 100 157 157 275 310 405 522 102 167
227 477 282 702 11 46 16 53 38 54 58 1 324 18 406 25 l60 6 -30 -34 c-16 -18
-32 -35 -35 -38 -9 -10 -117 -145 -168 -212 -29 -37 -52 -72 -52 -77 0 -6 -6
-14 -12 -18 -25 -16 -230 -322 -223 -333 8 -13 120 -47 235 -72 143 -30 446
-33 585 -5 11 3 38 7 60 11 46 8 210 53 240 66 11 5 37 14 59 20 68 22 277
130 380 197 188 125 406 318 532 473 49 60 62 72 67 63 3 -4 20 -35 37 -68 18
-33 66 -110 106 -172 216 -327 380 -367 535 -130 78 119 102 242 103 531 l1
199 50 13 c28 7 61 16 75 19 14 2 56 13 94 24 l70 19 55 -42 c250 -190 517
-329 809 -421 40 -13 76 -24 80 -24 41 -9 61 -14 81 -22 27 -11 28 -22 -13
136 -15 55 -29 116 -32 135 -3 19 -7 46 -10 60 -2 14 -6 34 -8 45 -2 11 -9 62
-16 113 -11 87 -8 121 8 96 14 -21 141 -103 213 -137 140 -67 229 -89 360 -88
87 0 212 22 235 42 25 20 79 184 92 278 13 96 6 298 -14 381 -9 41 9 5 60
-115 46 -112 172 -347 187 -353 5 -2 9 -8 9 -14 0 -8 20 -39 72 -113 4 -5 36
-45 70 -89 35 -43 70 -87 79 -98 19 -25 18 -27 64 97 21 55 70 165 110 245 74
148 79 158 159 297 l47 80 97 -33 c153 -53 260 -76 355 -79 138 -5 203 27 240
116 17 42 16 170 -3 239 -27 102 -149 299 -256 415 -15 17 -38 42 -51 56 l-24
26 43 25 c24 14 70 40 103 58 33 18 117 66 187 107 70 40 129 73 132 73 2 0
16 -26 31 -57 130 -268 371 -474 648 -554 84 -24 268 -34 337 -18 25 6 52 12
62 14 49 10 146 59 201 100 145 111 218 264 217 455 0 52 -2 106 -5 120 -3 14
-8 40 -11 59 -9 55 -62 196 -115 309 -27 57 -49 106 -49 107 0 2 44 -24 98
-58 53 -34 144 -85 202 -114 358 -182 527 -127 532 172 2 110 -31 223 -107
375 -20 40 -30 68 -23 64 7 -4 33 -22 58 -40 131 -93 369 -217 530 -277 106
-39 279 -91 285 -85 3 2 -9 58 -25 124 -16 65 -32 137 -35 159 -4 22 -8 51
-10 65 -2 14 -7 50 -10 80 -4 30 -9 62 -10 70 -1 8 -6 56 -9 105 -4 50 -9 108
-11 130 -3 22 -7 80 -10 130 -4 49 -8 103 -10 120 -2 16 -7 64 -10 105 -6 64
-18 140 -52 329 l-6 33 39 -24 c56 -35 165 -82 214 -93 3 -1 23 -7 45 -13 22
-6 58 -14 80 -17 22 -3 54 -8 70 -10 17 -3 67 -5 110 -6 298 -1 545 104 686
293 l36 48 -18 81 c-44 187 -142 354 -299 509 l-98 96 47 2 c25 2 62 5 81 7
19 3 51 7 70 9 327 41 701 223 949 461 l61 58 -32 60 c-61 113 -182 218 -358
308 -47 24 -87 45 -89 46 -2 1 4 14 13 28 l17 26 47 -28 c75 -44 195 -100 241
-113 80 -21 103 0 160 145 74 189 100 342 95 560 -2 83 -4 161 -6 175 -2 24
17 59 117 213 32 50 158 257 160 264 0 1 27 4 60 8 33 4 78 11 100 17 22 5 49
12 59 14 35 6 150 54 199 82 66 38 157 118 199 174 l36 47 -14 64 c-26 124
-75 240 -150 353 l-36 54 34 52 c37 57 68 119 68 137 0 6 4 19 9 29 5 9 21 43
36 75 15 31 29 57 31 57 2 0 10 -21 17 -47 39 -128 182 -406 295 -567 62 -91
184 -236 192 -231 5 3 11 19 15 35 11 49 73 197 132 314 62 123 54 109 128
239 30 54 55 101 55 104 0 4 6 14 14 22 15 17 20 27 126 220 38 70 70 131 70
136 0 5 6 16 13 24 7 9 26 48 42 86 15 39 36 88 46 110 21 50 63 188 85 280
38 166 38 380 1 525 -14 52 -28 102 -31 110 -4 11 18 26 83 57 200 95 313 282
314 518 0 131 -22 226 -94 400 l-29 70 47 -55 c26 -30 111 -118 188 -195 126
-126 167 -164 285 -262 130 -108 341 -250 565 -378 199 -115 295 -168 295
-163 0 2 9 46 20 98 33 147 41 281 27 450 -7 91 -10 107 -33 215 -21 98 -19
90 -54 198 -91 275 -279 566 -516 799 -210 204 -399 341 -697 503 -80 43 -145
81 -143 83 2 1 16 5 31 8 60 11 243 78 340 125 230 110 406 224 526 341 115
111 160 192 165 295 6 123 -49 207 -170 264 -68 32 -248 79 -379 100 l-78 12
30 21 c37 26 85 99 100 151 27 99 4 244 -61 382 -36 77 -115 198 -147 227 -11
11 -21 22 -21 25 0 4 51 8 113 9 61 1 121 4 132 6 11 3 40 5 64 5 41 1 43 2
37 25 -9 38 -101 229 -148 309 -89 152 -190 270 -307 356 l-54 40 49 21 c192
83 301 161 402 289 120 151 160 363 103 542 -49 156 -186 298 -351 365 -51 21
-84 30 -175 50 -31 7 -225 6 -270 -1 -36 -6 -147 -29 -185 -39 -126 -33 -388
-160 -520 -254 -171 -121 -378 -344 -484 -520 -21 -35 -42 -60 -45 -55 -4 4
-27 33 -51 63 -52 64 -253 267 -325 328 -254 213 -548 379 -850 480 -49 16
-105 32 -124 36 -29 5 -32 4 -26 -12 9 -24 52 -218 59 -272 4 -25 9 -67 12
-95 2 -27 7 -63 9 -80 3 -16 7 -70 10 -120 l6 -90 -25 32 c-44 53 -158 173
-166 173 -9 0 -164 -304 -180 -355 l-13 -40 -27 85 c-51 162 -123 284 -233
395 -131 131 -276 202 -439 212 -109 7 -192 -8 -283 -52 -169 -82 -300 -265
-349 -487 -8 -34 -14 -35 -46 -5 -14 12 -44 34 -67 50 -24 15 -43 29 -43 31 0
2 29 47 65 101 36 53 65 99 65 102 0 3 8 17 19 31 35 51 118 217 149 302 109
297 297 1086 397 1665 7 46 54 356 59 395 3 19 7 51 10 70 5 32 19 140 32 245
2 22 6 56 9 75 2 19 7 64 10 100 4 36 8 76 10 90 2 14 7 59 10 100 3 41 8 93
10 115 3 22 9 92 15 155 9 109 13 158 25 345 3 44 8 107 10 140 3 33 7 121 11
195 3 74 7 158 9 185 19 262 28 1656 13 1925 -4 69 -10 170 -13 225 -3 55 -7
125 -10 155 -2 30 -7 89 -11 130 -3 41 -7 91 -9 111 -9 104 -34 343 -41 379
-2 14 -6 48 -9 75 -6 52 -61 421 -70 465 -3 14 -10 52 -16 85 -246 1380 -776
2557 -1538 3415 -102 114 -374 386 -491 490 -47 41 -121 110 -166 153 -166
159 -275 233 -411 279 -194 65 -370 20 -461 -118 -42 -62 -55 -112 -54 -204 0
-153 83 -299 278 -491 347 -343 422 -423 568 -614 90 -118 81 -105 132 -180
177 -259 358 -633 453 -940 62 -200 128 -499 147 -665 3 -25 7 -56 9 -70 4
-28 15 -132 21 -200 10 -121 12 -506 3 -595 -62 -624 -350 -1262 -927 -2056
-79 -110 -399 -531 -438 -578 -7 -9 -34 -42 -59 -75 l-45 -58 0 213 c-1 306
-10 584 -25 755 -21 235 -26 282 -29 304 -3 14 -7 50 -11 80 -3 30 -7 66 -9
80 -2 14 -7 46 -10 71 -4 25 -9 57 -11 70 -2 13 -6 42 -10 64 -5 35 -38 221
-49 280 -98 502 -276 1089 -473 1555 -269 639 -636 1245 -1062 1760 -163 196
-247 288 -460 500 -219 218 -256 252 -396 370 -50 41 -92 77 -95 81 -3 3 -43
35 -90 73 -47 37 -92 73 -100 79 -112 90 -458 328 -620 426 -47 28 -92 56
-100 61 -36 22 -127 74 -174 100 -28 15 -69 38 -91 50 -50 29 -393 200 -460
230 -27 12 -77 34 -110 49 -76 35 -337 140 -435 176 -41 15 -88 33 -105 40
-100 42 -501 165 -750 230 -142 37 -160 42 -205 51 -14 3 -50 11 -80 19 -30 8
-71 17 -90 20 -19 3 -75 15 -125 25 -49 11 -128 26 -175 35 -47 8 -96 17 -110
19 -14 2 -59 10 -100 16 -41 6 -86 13 -100 16 -38 6 -328 43 -387 49 -29 3
-77 7 -105 10 -98 10 -143 14 -238 20 -52 4 -111 8 -130 10 -19 2 -120 6 -225
10 -104 3 -190 7 -191 8 -1 1 -4 76 -6 167 -4 178 -10 200 -65 252 -56 54 -87
59 -299 57 -107 -2 -196 -4 -197 -5z m-8246 -14171 c10 -42 16 -79 13 -82 -7
-7 -104 -9 -104 -2 0 12 65 169 69 166 2 -2 12 -39 22 -82z m14533 -13999 c3
-8 2 -12 -4 -9 -6 3 -10 10 -10 16 0 14 7 11 14 -7z"/>
<path d="M4560 21430 c-106 -19 -170 -35 -215 -55 -16 -8 -48 -21 -69 -30
-108 -43 -253 -163 -323 -265 -35 -53 -82 -165 -85 -206 -7 -103 215 -225 410
-224 64 1 197 32 252 60 98 49 258 154 360 235 70 55 202 198 220 237 55 121
-16 222 -180 254 -66 13 -280 9 -370 -6z"/>
<path d="M36818 21445 c-2 -2 -25 -6 -52 -9 -156 -21 -244 -125 -198 -236 44
-107 250 -292 477 -426 177 -105 240 -124 403 -119 135 5 243 49 330 136 41
41 43 47 38 87 -13 94 -80 215 -170 304 -136 135 -334 227 -546 253 -58 7
-276 15 -282 10z"/>
<path d="M3442 20444 c-148 -25 -316 -95 -422 -176 -78 -60 -194 -195 -216
-252 -5 -12 61 -32 246 -72 163 -36 408 -49 580 -30 36 4 92 9 125 11 33 3 78
7 100 10 22 2 63 7 90 10 91 11 255 45 309 66 152 57 224 181 144 250 -68 59
-306 138 -558 184 -73 13 -315 13 -398 -1z"/>
<path d="M37890 20450 c-25 -4 -63 -10 -85 -13 -62 -9 -270 -64 -365 -98 -186
-64 -232 -142 -142 -241 78 -86 207 -126 533 -163 30 -4 73 -8 95 -10 21 -1
82 -6 134 -11 127 -11 361 -8 435 5 33 6 77 13 98 17 21 3 97 20 169 37 l130
32 -50 75 c-73 108 -176 200 -297 265 -57 30 -192 79 -245 89 -19 3 -46 9 -60
12 -38 9 -299 12 -350 4z"/>
<path d="M4099 19646 c-2 -2 -29 -6 -59 -10 -170 -17 -377 -93 -526 -192 -92
-61 -93 -88 -10 -212 154 -230 414 -435 689 -546 94 -37 219 -72 293 -81 113
-13 274 -6 331 16 13 5 23 7 23 4 0 -2 38 11 83 29 267 105 340 282 212 513
-119 213 -419 414 -685 458 -25 4 -54 9 -65 12 -26 6 -281 14 -286 9z"/>
<path d="M37287 19634 c-269 -40 -517 -180 -679 -384 -112 -141 -146 -296 -90
-406 72 -141 301 -245 542 -246 82 0 175 8 189 16 4 3 26 7 50 11 24 3 82 20
129 37 267 93 532 281 697 493 62 80 123 181 120 200 -6 50 -79 106 -225 174
-91 42 -260 94 -350 106 -95 13 -291 13 -383 -1z"/>
<path d="M2218 18955 c-2 -2 -26 -5 -54 -9 -149 -17 -329 -104 -527 -254 l-58
-44 53 -39 c91 -65 210 -128 290 -154 62 -20 95 -24 160 -22 94 3 143 22 242
89 246 167 293 356 104 417 -32 11 -202 23 -210 16z"/>
<path d="M39328 18955 c-2 -2 -19 -6 -39 -9 -55 -8 -81 -21 -112 -54 -65 -68
-38 -169 75 -281 34 -33 65 -61 69 -61 4 0 14 -6 21 -13 32 -30 118 -77 172
-92 82 -24 194 -15 289 22 88 35 297 163 297 182 0 16 -220 163 -317 212 -120
60 -228 88 -355 93 -53 2 -98 3 -100 1z"/>
<path d="M3005 17963 c-126 -28 -204 -118 -171 -197 28 -67 197 -204 333 -271
174 -85 305 -93 518 -32 90 26 264 152 308 223 6 11 -83 75 -193 137 -86 49
-227 94 -353 111 -18 3 -52 8 -77 11 -25 3 -69 10 -99 16 -54 9 -228 11 -266
2z"/>
<path d="M38460 17967 c-3 -3 -34 -8 -70 -11 -36 -4 -72 -8 -80 -11 -8 -2 -35
-6 -60 -9 -25 -3 -54 -8 -65 -10 -113 -24 -196 -51 -274 -91 -75 -38 -221
-133 -221 -144 0 -20 144 -143 212 -180 115 -64 193 -85 318 -85 166 0 281 41
446 160 146 105 194 159 194 217 0 61 -57 121 -141 149 -41 14 -247 26 -259
15z"/>
</g>
</svg>
