<?xml version="1.0" encoding="utf-8"?>
<!-- Generator: Adobe Illustrator 28.0.0, SVG Export Plug-In . SVG Version: 6.00 Build 0)  -->
<svg version="1.1" id="Calque_1" xmlns="http://www.w3.org/2000/svg" xmlns:xlink="http://www.w3.org/1999/xlink" x="0px" y="0px"
	 viewBox="0 0 1000 1000" style="enable-background:new 0 0 1000 1000;" xml:space="preserve">

  <!-- Define the filter -->
  <defs>
    <filter id="turbulence-filter">
            <feTurbulence type="fractalNoise" baseFrequency="0.000001 0.000001" numOctaves="1" result="warp" seed="1"></feTurbulence>
            <feDisplacementMap xChannelSelector="R" yChannelSelector="G" scale="30" in="SourceGraphic" in2="warp"></feDisplacementMap>
    </filter>
    <filter id="glow-filter" x="-50%" y="-50%" width="200%" height="200%">
      <!-- First gaussian blur with no color change -->
      <feGaussianBlur in="SourceGraphic" stdDeviation="0" result="blur">
      <animate attributeName="stdDeviation" values="0;5;0" dur="3s" begin="0s" repeatCount="indefinite" keyTimes="0;0.5;1" keySplines="0.25 0.1 0.25 1;0.25 0.1 0.25 1"/>
      </feGaussianBlur>

      <!-- Colored gaussian blur with animated opacity -->
      <feGaussianBlur in="SourceGraphic" stdDeviation="5" result="coloredBlur"/>
      <feColorMatrix in="coloredBlur" type="matrix" values="0 0 0 0 1  0 0 0 0 0.47  0 0 0 0 0.2  0 0 0 1 0" result="redBlur"/>
      <feFlood flood-color="#FF0000" result="flood" />
      <feComposite in="flood" in2="redBlur" operator="in" result="redColoredBlur"/>
      <feMerge>
        <feMergeNode in="blur"/> <!-- Original blur -->
        <!-- Colored blur with changing opacity -->
        <feMergeNode in="redColoredBlur"/>
      </feMerge>
    </filter>
  </defs>


<style type="text/css">
	.st0{fill:#034933;}
	.st1{fill:#87C540;}
	.st2{fill:#CEE077;}
	.st3{fill:#347C3C;}
	.st4{fill:#1D1B51;}
	.st5{fill:#963193;}
	.st6{opacity:0.75;}
	.st7{fill:#F2F3E7;}
	.st8{fill:#280B37;}
	.st9{fill:#A6D6AD;}
	.st10{fill:#004933;}
	.st11{fill:#7C2822;}
	.st12{fill:#0D1825;}
	.st13{fill:#2D4B37;}
</style>
<g>
	<g>
		<path class="st2" d="M829.01,378.08c0,17.77-1.33,35.21-3.89,52.24c-0.56,3.76-1.18,7.49-1.87,11.2c-0.34,1.9-0.7,3.79-1.08,5.67
			c-0.22,1.09-0.44,2.17-0.68,3.25c-0.1,0.51-0.21,1.01-0.32,1.51c-1.54,7.14-3.3,14.19-5.27,21.15
			c-7.44,26.3-17.88,51.29-30.93,74.55c-2.94,5.24-6.01,10.39-9.21,15.45c-2.35,3.72-4.77,7.39-7.26,11.01
			c-6.41,9.34-13.28,18.33-20.57,26.94c-23.54,27.86-51.42,51.77-82.56,70.61c-45.8,27.72-98.64,44.5-155.12,46.84
			c-4.52,0.19-9.06,0.28-13.63,0.28c-2.02,0-4.03-0.02-6.04-0.06c-7.93-0.15-15.81-0.57-23.6-1.28c-0.04,0-0.07,0-0.11-0.01
			c-6.08-0.55-12.12-1.27-18.1-2.16c-0.88-0.12-1.75-0.26-2.63-0.39c-2.8-0.44-5.6-0.92-8.38-1.43c-0.49-0.09-0.98-0.18-1.47-0.27
			c-0.24-0.04-0.47-0.09-0.71-0.14c-0.04,0-0.07-0.01-0.11-0.02c-3.57-0.67-7.14-1.42-10.67-2.22c-0.41-0.09-0.82-0.19-1.23-0.28
			c-0.23-0.05-0.45-0.1-0.67-0.16c-0.17-0.03-0.33-0.07-0.49-0.11c-0.1-0.02-0.2-0.05-0.3-0.07c-1.31-0.31-2.62-0.62-3.92-0.94
			v-0.01c-0.13-0.02-0.25-0.06-0.37-0.09c-0.01,0-0.02,0-0.02,0c-0.25-0.06-0.5-0.13-0.75-0.19c-0.49-0.12-0.98-0.25-1.47-0.38
			c-0.48-0.12-0.96-0.24-1.44-0.37c-30.9-8.08-60.08-20.61-86.82-36.87c-40.63-24.69-75.7-58-102.77-97.48
			c-4.97-7.24-9.68-14.69-14.09-22.33c-4.11-7.1-7.98-14.38-11.58-21.81c-0.24-0.48-0.48-0.97-0.71-1.46
			c-0.11-0.22-0.22-0.45-0.32-0.68c-0.04-0.08-0.08-0.16-0.12-0.24c-0.11-0.22-0.22-0.45-0.32-0.68c-0.01-0.01-0.01-0.01-0.01-0.02
			c-0.38-0.8-0.76-1.6-1.13-2.4c-0.24-0.53-0.49-1.06-0.73-1.59c-0.89-1.94-1.76-3.9-2.62-5.87c-0.05-0.13-0.11-0.25-0.16-0.38
			c-2.76-6.36-5.34-12.83-7.72-19.39c-0.43-1.18-0.86-2.36-1.27-3.55c-4.07-11.61-7.55-23.5-10.39-35.65
			c-0.12-0.45-0.22-0.9-0.32-1.35c-0.04-0.15-0.08-0.31-0.11-0.47c-0.04-0.18-0.08-0.36-0.12-0.55c-0.1-0.41-0.19-0.82-0.28-1.24
			c-0.26-1.16-0.51-2.32-0.76-3.48c-0.57-2.69-1.11-5.39-1.61-8.11c-0.09-0.43-0.17-0.87-0.25-1.31c-0.84-4.58-1.59-9.19-2.24-13.83
			c-2.29-16.12-3.47-32.61-3.47-49.38H829.01z"/>
		<path class="st1" d="M838,377.57c0,188.16-152.89,340.7-341.47,340.7c-21.16,0-41.88-1.92-61.98-5.6
			c-3.96-0.72-7.9-1.52-11.8-2.38c-153.12-33.64-267.7-169.83-267.7-332.72h118c-3.13,3.49-6.41,7.11-9.16,11.43
			c-8,12.58-2.99,2.81,2.02,14.42c4.48,10.39,5.24,17.63,3.31,29.1c9.44-3.66,20.11-4.05,29.8-1.09
			c0.66,15.24,1.33,30.48,1.98,45.72c11.98-5.06,26.49-3.57,37.19,3.8c-7.69,9.9-16.29,19.1-25.67,27.43
			c12.96-8.04,30.71,4.91,33.21,19.93c1.19,7.1,0.16,14.14-2,21.01c2.05-2.86,4.47-5.43,7.37-7.53c9.46-6.84,25.79-5.18,29.6,5.85
			c5.09-3.5,11.48-5.06,17.6-4.28c-2.39,11.12-5.9,22-10.46,32.43c10.67-3.94,21.35-7.88,32.01-11.82
			c2.9,13.55,4.12,27.46,3.63,41.31c9.1-1.58,17.99-4.39,26.34-8.33c3.58,7.2,7.15,14.41,10.74,21.61
			c6.43-6.28,13.69-11.72,21.53-16.14c10.03,17.58,14.16,38.45,11.58,58.52c7.32-19.69,19.65-37.5,35.5-51.33
			c8.06,4.09,15.24,9.93,20.86,16.99c0.4-5.19,3.14-10.17,7.31-13.3c11.34,4.24,22.04,10.18,31.61,17.57
			c1.07-8.25,5.2-16.07,11.4-21.63c4.32,2.69,8.65,5.38,12.99,8.07c-3.53-19.55-3.6-39.72-0.2-59.3c12.88-0.7,25.94,2.29,37.21,8.54
			c-4.95-16.47-5.82-34.15-2.51-51.02c13.93,2.36,27.27,8.15,38.49,16.71c0.03-3.27,0.07-6.53,0.1-9.8
			c4.98-0.18,9.95-0.36,14.94-0.54c-8.51-11.14-12.27-25.78-10.17-39.63c7.63-1.12,15.27-2.25,22.9-3.37
			c-3.47-13.95-3.62-28.72-0.41-42.75c7.93-1.55,16.33-0.61,23.73,2.66c-1.33-6.79,7.74-12.91,13.57-9.17
			c-9.66-10.51,1.89-31.02,15.91-28.27c-1.57-7.93-3.14-15.87-4.72-23.8H838z"/>
		<path class="st3" d="M438.81,699.82c-0.54,3.83-1.39,7.77-3.69,10.88c-0.53,0.72-1.13,1.37-1.77,1.97
			c-158.64-29.08-278.87-168.05-278.87-335.1h83.55c14.86,15.85,18.51,44.62-7.02,51.91c6.85-0.93,13.7-1.85,20.55-2.77
			c3.75,14.66,2.81,30.49-2.65,44.6c8.45-6.86,22.14-2.64,28.46,6.21c6.33,8.86,6.95,20.56,6.01,31.4
			c6.44-0.55,12.72-2.92,17.91-6.77c1.57,24.62-4.99,49.68-18.4,70.37c5.53-2.96,12.03-4.08,18.23-3.13
			c2.82,12.11,0.01,25.4-7.46,35.33c5.85-4.03,12.58-6.79,19.58-8.03c4.95-0.88,10.35-0.94,14.69,1.61
			c3.91,2.3,6.47,7.25,5.25,11.47c4.59-11.66,10.98-22.63,18.87-32.4c12.31,4.42,21.54,16.4,22.67,29.44
			c6.04-7.73,14.28-13.72,23.5-17.07c5.06,16.84,6.15,34.85,3.23,52.19c3.49-4.28,10.05-6.83,15.6-5.17
			c9,2.7,14.42,11.84,17.54,20.71C439.35,670.98,440.81,685.63,438.81,699.82z"/>
		<path class="st3" d="M835.88,377.57c0,188.16-152.54,340.7-340.7,340.7c-21.11,0-41.78-1.92-61.83-5.6
			c-3.95-0.72-7.88-1.52-11.78-2.38c-0.12-0.53-0.22-1.07-0.31-1.61c-2.58-15.38,4.78-56.93,27.61-54.41
			c11.96,1.33,31.51,31.85,27.9,42.76c1.95-5.9,6.36-10.96,11.95-13.69c4.99,3.38,9.98,6.76,14.96,10.15
			c-7.26-15.56-10.02-33.2-7.85-50.23c23.28-0.16,46.32,11.68,59.75,30.7c-1.05-10.24,5.09-20.81,14.5-24.98
			c11.77,7.7,21.52,18.45,28.05,30.9c-3.62-10.91-2.66-23.25,2.6-33.47c12.85-2.57,26.61-0.32,37.97,6.21
			c-9-13.94-10.96-32.19-5.11-47.73c6.35-1.65,13.16-1.45,19.4,0.57c-6.77-12.98-7.85-28.8-2.91-42.58
			c17.07,0.15,34,6.79,46.6,18.29c0.05-2.29,0.09-4.58,0.13-6.88c5.32,0.74,10.51,2.34,15.32,4.72c-1.46-8.96-2.33-18.02-2.61-27.09
			c-0.08-2.4-0.01-5.08,1.67-6.81c1.52-1.56,3.9-1.83,6.07-2.01c7.22-0.61,14.43-1.22,21.65-1.82
			c-16.39-3.31-30.31-16.67-34.29-32.91c13.59-1.76,27.39-1.9,41.02-0.42c-8.04-7.7-12.01-19.42-10.3-30.41
			c6.64,0.7,13.28,1.39,19.92,2.09c-5-11.85-3.37-26.25,4.14-36.68c6.54,3.75,13.07,7.49,19.6,11.23
			c-5.3-11.84-15.98-21.13-28.44-24.74c9.94-7.32,21.16-12.9,32.99-16.42c-4.33-6.69-8.66-13.37-12.99-20.06
			c5.19-7.55,12.81-12.5,21.45-15.39H835.88z"/>
		<g>
			<path class="st0" d="M498.34,728.77c-47.34,0-93.27-9.27-136.51-27.56c-41.76-17.66-79.27-42.95-111.47-75.15
				c-32.2-32.2-57.49-69.71-75.15-111.47c-18.29-43.24-27.56-89.17-27.56-136.51c0-5.52,4.48-10,10-10h681.39c5.52,0,10,4.48,10,10
				c0,47.34-9.27,93.27-27.56,136.51c-17.66,41.76-42.95,79.27-75.15,111.47c-32.2,32.2-69.71,57.49-111.47,75.15
				C591.61,719.5,545.68,728.77,498.34,728.77z M167.8,388.08c2.5,84.58,36.61,163.74,96.71,223.84
				c62.46,62.46,145.5,96.86,233.84,96.86s171.38-34.4,233.84-96.86c60.1-60.1,94.21-139.25,96.71-223.84H167.8z"/>
		</g>
	</g>
	<g>
		<g id="RETINE_00000127029210871540623510000000838811950869114804_">
			<g>
				<path class="st4" d="M634.3,416.44c-0.13,0-0.26-0.05-0.35-0.15l-14.8-14.8c-0.2-0.2-0.2-0.51,0-0.71s0.51-0.2,0.71,0l14.8,14.8
					c0.2,0.2,0.2,0.51,0,0.71C634.56,416.39,634.43,416.44,634.3,416.44z"/>
			</g>
			<g>
				<path class="st4" d="M582.09,362.87c-0.13,0-0.26-0.05-0.35-0.15l-21.33-21.33c-0.2-0.2-0.2-0.51,0-0.71s0.51-0.2,0.71,0
					l21.33,21.33c0.2,0.2,0.2,0.51,0,0.71C582.34,362.82,582.22,362.87,582.09,362.87z"/>
			</g>
			<g>
				<path class="st4" d="M623.32,362.58c-0.13,0-0.26-0.05-0.35-0.15c-0.2-0.2-0.2-0.51,0-0.71l19.38-19.38c0.2-0.2,0.51-0.2,0.71,0
					s0.2,0.51,0,0.71l-19.38,19.38C623.57,362.53,623.44,362.58,623.32,362.58z"/>
			</g>
			<g>
				<path class="st4" d="M568.23,416.44c-0.13,0-0.26-0.05-0.35-0.15c-0.2-0.2-0.2-0.51,0-0.71l14.15-14.15c0.2-0.2,0.51-0.2,0.71,0
					s0.2,0.51,0,0.71l-14.15,14.15C568.48,416.39,568.36,416.44,568.23,416.44z"/>
			</g>
			<g>
				<path class="st4" d="M653.6,383.02h-27.41c-0.28,0-0.5-0.22-0.5-0.5s0.22-0.5,0.5-0.5h27.41c0.28,0,0.5,0.22,0.5,0.5
					S653.88,383.02,653.6,383.02z"/>
			</g>
			<g>
				<path class="st4" d="M575.3,383.02H547.9c-0.28,0-0.5-0.22-0.5-0.5s0.22-0.5,0.5-0.5h27.41c0.28,0,0.5,0.22,0.5,0.5
					S575.58,383.02,575.3,383.02z"/>
			</g>
			<g>
				<path class="st4" d="M600.75,356.11c-0.28,0-0.5-0.22-0.5-0.5v-33.46c0-0.28,0.22-0.5,0.5-0.5s0.5,0.22,0.5,0.5v33.46
					C601.25,355.89,601.02,356.11,600.75,356.11z"/>
			</g>
			<g>
				<path class="st4" d="M600.75,428.35c-0.28,0-0.5-0.22-0.5-0.5v-16.52c0-0.28,0.22-0.5,0.5-0.5s0.5,0.22,0.5,0.5v16.52
					C601.25,428.13,601.02,428.35,600.75,428.35z"/>
			</g>
		</g>
		<g id="ROBOT_x5F_REFLET_00000032607992891699316280000000905836614935142046_">
			<path class="st1" d="M684.23,221.27c0,110.03-17.78,131.01-17.78,172.96c0,70.91-92.91,216.25-172.81,216.25V42.15
				c80.05,0,148.58,37.89,176.81,107.83c0.03,0.05,0.05,0.11,0.07,0.16c8,19.9,12.76,41.46,13.58,64.02
				c0.03,0.73,0.05,1.46,0.07,2.19c0.02,0.82,0.03,1.64,0.04,2.46C684.23,219.62,684.23,220.45,684.23,221.27z"/>
		</g>
		<g id="OMBRE_x5F_VISAGE_x5F_D_00000096033847207408124220000016310351003166139565_">
			<g>
				<path class="st3" d="M645.24,320.73c-7.6,15-19.93,27.57-34.77,35.47c-12.27,6.54-25.96,9.86-38.71,15.39
					c-21.06,9.13-39.41,24.42-52.19,43.49c-2.34,3.49-4.52,7.15-5.77,11.16c-1.44,4.62-1.61,9.53-1.76,14.36
					c-0.7,22.52-1.41,45.03-2.12,67.55c-0.06,2.12-0.07,4.43,1.24,6.09c1.51,1.92,4.23,2.31,6.66,2.55
					c11.34,1.11,30.45-11.76,41.79-10.64c4.4,0.43,6.18,9.52,4.25,13.5c-1.33,2.93-1.04,15.94-1.38,22.52
					c-0.84,12.08-9.62,18.51-18.95,24.87c-6.77,4.61-18.17,3.81-23.44,10.07c-7.27,8.64-10.74,20.18-10.1,31.44
					c-5.49,1.27-10.95,1.93-16.35,1.93V42.15c64.66,0,121.81,24.72,156.26,71.09c-9.45-9-20.33-16.57-31.97-22.48
					c-23.87-12.13-50.77-17.54-77.53-18.28c-9.95-0.28-22.39,1.84-25.22,11.39c-1.96,6.65,7.05,12.63,5.54,19.39
					c-6.39,28.58-51.3,37.1,29.75,87.98c8.26,5.19,2.04,20.37,8.98,27.23c5.35,5.3,14.35,8.75,14.53,16.28
					c0.23,10.04-16.13,14.72-15.23,24.73c0.72,7.89,11.04,10.13,18.95,10.54c11.43,0.6,22.83,1.77,34.15,3.5
					c15.57,2.37,33.79,8.35,37.69,23.61C651.57,305.05,648.94,313.44,645.24,320.73z"/>
			</g>
			<g>
				<path class="st1" d="M498.34,518.36c17.27,0,52.51,0,61.01,0c8.51,0,5.04,0.77-2.97,18.03c-7.35,15.83-49.19,44.53-58.04,44.53
					V518.36z"/>
			</g>
			<g>
				<path class="st5" d="M534.96,455.65c2.27,3.2,4.72,6.39,8.02,8.5c5.84,3.72,14.05,3.26,19.43-1.1
					c0.11,3.64,0.21,7.28,0.32,10.92c-7.71,4.32-17.98,1.87-24.43-4.16c-4.27-4-7.08-9.28-8.8-14.82c-0.32-1.03-2.18-6.17,0.22-6.44
					C530.97,448.41,534.18,454.56,534.96,455.65z"/>
			</g>
			<g>
				<path class="st3" d="M532.01,72.89c0,0,6.03,5.21,7.73,10.25l-0.73,13.25c0,0-2.54-7.52-6.99-9.16L532.01,72.89z"/>
			</g>
			<g>
				<path class="st3" d="M642.15,168.35c1.41,5.49,2.21,11.32,0.71,16.78s-5.71,10.47-11.28,11.52c11.57,9.02,21.81,19.73,30.3,31.7
					c3.45,4.86,6.75,10.07,11.73,13.34c1.1,0.72,2.36,1.36,3.67,1.23c2.54-0.26,3.88-3.1,4.58-5.55
					c6.84-23.99,0.32-49.52-6.18-73.59c-2.79,1.52-5.68-1.76-7.27-4.52c-11.06-19.19-27.05-35.45-45.88-47.09
					c-2.38-1.47-43.36-20.32-35.94-13.98c6.09,5.2,24.13,19.41,26.44,21.87c3.98,4.26,7.8,8.68,11.33,13.33
					C632.31,143.86,638.86,155.55,642.15,168.35z"/>
			</g>
			<g>
				<polygon class="st3" points="498.34,429.24 498.34,421.52 508.43,419.24 508.43,426.21 				"/>
			</g>
		</g>
		<g>
			<circle class="st1" cx="600.75" cy="371.21" r="92.3"/>
		</g>
		<g>
			<circle class="st2" cx="600.75" cy="375.17" r="92.3"/>
		</g>
		<g>
			<circle class="st3" cx="600.75" cy="375.17" r="81.16"/>
		</g>
		<g>
			<circle id="myEye" class="st1" cx="600.75" cy="375.17" r="65.69" filter="url(#glow-filter)" data-info="ZmxhZ3toaWRkZW5fbWVzc2FnZX0="/>
      <circle id="myEyeOutline" class="st1" cx="600.75" cy="375.17" r="65.69"/>
		</g>
		<g>
			<circle class="st2" cx="600.75" cy="375.17" r="60.17"/>
		</g>
		<g id="OMBRE_x5F_VISAGE_x5F_G_00000013877910227845877300000012290759043707703978_">
			<path class="st3" d="M310.11,322.64c-14.08-16.2-26.44-22.57-26.44-22.57s-10.49,5.71-8.62,11.28
				c1.87,5.58,20.23,52.78,20.23,73.76s17.58,55.82,28.47,55.82c2.67,0,6.97,3.08,8.09,6.2"/>
			<path class="st3" d="M493.64,30.68v591.27c-79.89,0-172.8-156.81-172.8-227.72c0-41.95-17.79-62.93-17.79-172.96
				c0-0.82,0-1.65,0.02-2.46c0.01-0.82,0.02-1.64,0.04-2.46c0.02-0.73,0.04-1.46,0.07-2.19c0.82-22.56,5.58-44.12,13.58-64.02
				c0.02-0.05,0.04-0.11,0.07-0.16C345.06,80.04,413.59,30.68,493.64,30.68z"/>
		</g>
		<g id="REFLET_00000135656841314759792450000000058770132163010444_">
			<g>
				<path class="st1" d="M292.08,307.25c-1.52-1.17-3.12-2.33-4.98-2.81c-2.53-0.65-5.44,0.19-7.09,2.22
					c-1.65,2.03-1.84,5.18-0.29,7.29c4.21-2,17.75,12.9,22.86,22.47c6.74,12.63,7.98,28.37,10.95,42.37
					c0.34,1.59,1.85,3.63,3.08,2.56c0.45-0.4,0.53-1.06,0.58-1.65c1.09-14.1-0.3-28.38-4.03-42.01c-1.53-5.59-3.1-12.56-6.37-17.44
					C303.35,315.12,296.93,310.96,292.08,307.25z"/>
			</g>
			<g>
				<path class="st2" d="M504.33,526.8c-1.69-0.15-3.43,0.62-4.5,2c-1.31,1.69-1.54,4.02-1.48,6.19c0.05,1.9,0.32,3.89,1.38,5.44
					c1.08,1.57,2.96,2.51,4.82,2.4c1.85-0.11,3.62-1.27,4.52-2.96c0.64-1.2,0.85-2.6,0.84-3.97
					C509.88,532.3,508.35,527.16,504.33,526.8z"/>
			</g>
			<g>
				<path class="st2" d="M522.54,525.66c-1.39,0.65-2.23,2.08-2.95,3.43c-0.61,1.15-1.2,2.31-1.56,3.56
					c-0.47,1.59-0.55,3.27-0.59,4.92c-0.02,1.09,0.02,2.31,0.81,3.07c0.45,0.43,1.06,0.62,1.65,0.79c1.09,0.31,2.21,0.56,3.33,0.75
					c2.21,0.38,4.81,0.39,6.3-1.28c0.9-1,1.18-2.44,1.07-3.77c-0.12-1.34-0.59-2.62-1.07-3.88c-0.47-1.25-0.94-2.5-1.41-3.75
					C527.34,527.44,525.09,524.46,522.54,525.66z"/>
			</g>
			<g>
				<path class="st2" d="M540.59,526.1c-0.25-0.3-0.55-0.6-0.95-0.63c-0.53-0.04-0.96,0.4-1.25,0.83c-1.48,2.18-1.99,4.81-2.24,7.39
					c-0.16,1.63-0.21,3.37,0.63,4.81c0.22,0.37,0.5,0.72,0.89,0.94c0.44,0.25,0.98,0.3,1.49,0.29c0.44,0,0.9-0.05,1.26-0.28
					c0.24-0.15,0.43-0.37,0.59-0.6c1.11-1.49,1.71-3.3,1.72-5.12c0.01-1.63-0.05-3.37-0.61-4.93
					C541.79,527.83,541.27,526.91,540.59,526.1z"/>
			</g>
			<g>
				<path class="st2" d="M552.11,529.49c-0.37-0.44-0.94-0.7-1.52-0.69c-0.18,0-0.36,0.03-0.51,0.12c-0.13,0.08-0.23,0.21-0.32,0.34
					c-0.81,1.16-1.41,2.45-1.78,3.82c-0.09,0.33-0.16,0.67-0.14,1.01c0.06,0.88,0.76,1.6,1.54,2.02c0.3,0.16,0.64,0.29,0.98,0.28
					c0.45-0.02,0.87-0.29,1.15-0.64s0.45-0.79,0.59-1.22C552.58,533.13,553.21,530.78,552.11,529.49z"/>
			</g>
			<g>
				<path class="st2" d="M515.59,548.68c0.35,0.08,0.72,0.17,0.97,0.34c0.31,0.21,0.38,0.5,0.43,0.77c0.23,1.21,0.41,2.54-0.71,3.49
					c-0.62,0.53-1.56,0.88-2.48,1.22c-0.69,0.25-1.39,0.51-2.19,0.64c-0.8,0.12-1.72,0.1-2.46-0.18c-0.66-0.25-1.1-0.67-1.46-1.08
					c-1.51-1.75-2.1-3.75-1.67-5.61C506.38,546.71,513.9,548.31,515.59,548.68z"/>
			</g>
			<g>
				<path class="st2" d="M523.75,547.65c-0.49,0-0.99,0-1.44,0.08c-0.67,0.12-1.16,0.41-1.38,0.72c-0.23,0.31-0.23,0.65-0.16,0.98
					c0.25,1.11,1.34,2.17,3.05,2.96c0.33,0.15,0.71,0.3,1.17,0.35c0.64,0.07,1.32-0.09,1.76-0.31c0.44-0.22,0.69-0.51,0.91-0.8
					c0.44-0.55,0.82-1.11,1.15-1.67c0.35-0.6,1.16-1.64-0.2-2.1C527.4,547.45,525.12,547.65,523.75,547.65z"/>
			</g>
			<g>
				<path class="st2" d="M534.03,547.22c-0.17,0.05-0.34,0.11-0.45,0.19c-0.09,0.06-0.13,0.13-0.17,0.2
					c-0.25,0.47-0.49,0.96-0.31,1.38c0.2,0.45,0.89,0.78,1.68,1.03c0.17,0.05,0.34,0.1,0.57,0.11c0.27,0.01,0.58-0.04,0.88-0.09
					c0.54-0.09,1.09-0.18,1.57-0.34c0.38-0.13,0.69-0.29,0.96-0.46c1.05-0.66,2.76-2.47,1.65-2.96
					C539.18,545.73,535.49,546.76,534.03,547.22z"/>
			</g>
			<g>
				<path class="st2" d="M544.51,543.91c-0.12,0.2-0.25,0.41-0.22,0.62c0.03,0.22,0.2,0.38,0.29,0.58c0.07,0.16,0.1,0.35,0.26,0.45
					c0.24,0.15,0.61,0,0.89-0.15c0.38-0.2,0.77-0.4,1.15-0.61c1.12-0.59,3.18-2.15,1.5-3.04
					C546.8,540.92,545.16,542.87,544.51,543.91z"/>
			</g>
			<g>
				<path class="st1" d="M353.93,119.06c-10.74,12.3-21.81,27.29-23.21,45.03c-1.92,24.17,14.57,40.23,29.68,51.2
					c23.77,17.25,50.14,33.14,78.86,27.83c4.05-0.75,8.2-1.98,11.8-5c7.59-6.37,10.74-18.74,13.1-29.9
					c6.74-31.98,41.54-152,8.34-164.11C437.57,31.36,380.08,89.09,353.93,119.06z"/>
			</g>
			<g>
				<path class="st1" d="M380.42,296.15c-7.62-5.31-15.45-11.29-24.69-12.14c-2.4-0.22-4.98-0.04-6.96,1.35
					c-2.93,2.05-3.68,6.03-3.97,9.59c-1,12.26,1.44,26.28,11.61,33.2c3.5,2.38,7.61,3.68,11.71,4.72c8.6,2.18,17.83,3.32,26.23,0.47
					c7.6-2.59,19.75-13.43,14.28-22.52c-2.15-3.57-7.25-4.61-10.86-5.89C391.45,302.69,385.93,300,380.42,296.15z"/>
			</g>
			<g>
				<path class="st1" d="M431.41,299.23c2.01-1.25,4.67-0.94,6.82,0.04c2.16,0.98,3.98,2.55,5.97,3.84
					c4.89,3.19,10.67,4.65,16.15,6.66s11.02,4.82,14.19,9.73c1.8,2.8,2.7,6.07,3.42,9.32c1.05,4.7,1.79,9.47,2.22,14.27
					c0.14,1.58,0.24,3.25-0.41,4.7c-1.46,3.25-5.8,3.9-9.32,3.41c-14.67-2.05-25.57-15.88-28.46-30.4
					c-1.29-6.47-2.57-7.79-7.46-11.41C431.59,307.22,425.21,303.1,431.41,299.23z"/>
			</g>
			<g>
				<path class="st1" d="M398.16,437.54c-1.91,1.11-4.13,2.98-3.92,6.02c0.1,1.45,0.76,2.72,1.4,3.91
					c7.82,14.59,15.64,29.17,23.47,43.76c2.96,5.52,6.07,11.22,10.33,14.47c4.91,3.75,10.6,3.69,16,3.54
					c6.07-0.17,12.54-0.53,17.27-5.58c5.32-5.67,7.15-15.81,8.66-25.24c3.21-19.96,17.22-63.37-7.99-63.36
					C441.56,415.08,417.68,425.91,398.16,437.54z"/>
			</g>
			<g>
				<path class="st1" d="M498.34,429.24l10.1-3.03c0,0,0,20.66,0,37.38c0,16.72-10.29,26.17-10.29,26.17L498.34,429.24z"/>
			</g>
			<g>
				<path class="st1" d="M480.95,257.62c-0.41,4.29-5.94,5.63-10.24,5.81c-29.33,1.19-60.61-0.37-85.75,14.78
					c-3.03,1.83-11.88,8.12-15.72,5.39c-3.6-2.57-0.89-10.16,1.99-12.88c5.26-4.98,17.59-4.15,24.31-5.7
					C423.57,258.56,452.19,255.79,480.95,257.62z"/>
			</g>
			<g>
				<path class="st1" d="M485.63,522.46c-1.58-0.28-3.23-0.29-4.76,0.2c-1.36,0.43-2.57,1.24-3.76,2.03
					c-2.77,1.85-5.54,3.7-8.31,5.56c-2.36,1.58-4.76,3.18-7.46,4.08c-5.19,1.73-10.99,0.73-16.15,2.54
					c-0.27,0.09-0.55,0.2-0.73,0.42c-0.22,0.26-0.27,0.62-0.31,0.96c-0.28,2.46-0.44,5.3,1.31,7.06c0.8,0.8,1.88,1.24,2.91,1.73
					c4.27,2.01,7.95,5.05,11.82,7.75c7.68,5.37,16.25,9.47,25.25,12.09c2.61,0.76,5.34,1.4,8.04,1.08
					c-0.37-9.16-0.41-18.34-0.13-27.5c0.07-2.27,0.16-4.54,0.27-6.81c0.08-1.73,0.76-4.36,0.22-6.01
					C492.9,524.73,488.34,522.94,485.63,522.46z"/>
			</g>
		</g>
		<g id="DENT_x5F_REFLET_00000124849212432629084820000012257110145522195346_">
			<g class="st6">
				<path class="st7" d="M523.43,526.75c-0.91,0-1.88,0.47-2.23,1.31c-0.07,0.16-0.11,0.34-0.07,0.5c0.02,0.09,0.06,0.18,0.11,0.26
					c0.46,0.73,1.44,0.92,2.3,1.03c0.76,0.1,1.61,0.17,2.21-0.31C527.62,528.01,524.66,526.76,523.43,526.75z"/>
			</g>
			<g class="st6">
				<path class="st7" d="M540.99,528.91c0-0.91-0.47-1.88-1.31-2.22c-0.16-0.07-0.34-0.11-0.5-0.07c-0.09,0.02-0.18,0.06-0.26,0.11
					c-0.73,0.46-0.91,1.44-1.02,2.3c-0.1,0.76-0.17,1.61,0.32,2.21C539.75,533.11,540.99,530.15,540.99,528.91z"/>
			</g>
			<g class="st6">
				<path class="st7" d="M503.75,527.6c-1.09,0-2.25,0.8-2.67,2.26c-0.08,0.27-0.13,0.58-0.09,0.87c0.02,0.16,0.08,0.31,0.14,0.45
					c0.55,1.27,1.72,1.58,2.75,1.77c0.91,0.17,1.93,0.3,2.64-0.54C508.78,529.76,505.23,527.6,503.75,527.6z"/>
			</g>
			
				<ellipse transform="matrix(0.1438 -0.9896 0.9896 0.1438 340.3554 699.1409)" class="st2" cx="574.23" cy="152.87" rx="19.29" ry="48.58"/>
			<ellipse class="st2" cx="610.58" cy="234.27" rx="26.23" ry="13.24"/>
		</g>
		<g id="OMBRE_x5F_VISAGE_x5F_G_00000146487859443967811260000002764035886678184379_">
			<g>
				<path class="st0" d="M488.64,565.95v50.78c-32.92-2.85-71.68-33.43-107.24-84.89c-33.23-48.09-55.56-103.39-55.56-137.61
					c0-16.51-2.6-29.51-5.89-45.97c-3.42-17.07-7.42-37.06-9.8-67.53c4.59,11.88,8.8,20.73,9.18,21.5c0.79,1.65,2.41,2.73,4.24,2.83
					c1.82,0.1,3.55-0.81,4.52-2.36c0-0.01,0.06-0.1,0.16-0.26c0.29,3.44,0.89,7.32,1.99,11.49c3.61,13.74,13.53,33.52,40.25,49.76
					c1.82,1.11,4.19,0.91,5.83-0.46c0.72-0.6,17.99-14.54,51.33-0.92c1.96,0.8,4.21,0.28,5.62-1.3c1.41-1.58,1.68-3.87,0.66-5.73
					c-0.06-0.11-4.88-8.93-8-15.73c10.13,13.8,21.37,22.26,30.6,29.2c10.95,8.24,16.66,12.87,16.66,20.08c0,4.66-0.82,6.01-1,6.25
					c-1.67,0.46-7.58-2.28-11.12-3.92c-2.1-0.97-4.26-1.97-6.52-2.91c-17.99-7.47-27.52-3.85-36.73-0.36
					c-4.99,1.9-9.71,3.69-16.14,3.69c-10.95,0-20.72-4.27-24.39-5.88c-1.73-0.75-5.79-2.53-8.12,1.3c-2.34,3.86,0.7,6.31,3.91,8.89
					c10.47,8.45,23.62,9.85,32.35,10.77c-3.89,1.96-9.3,3.87-13.69,3.87c-10.24,0-24.4-18.83-34.74-32.58
					c-11.64-15.46-18.04-23.53-25.16-23.53c-2.48,0-5.53,1.5-6.66,5.71c-3.03,11.29,7.5,46.68,23.47,78.89
					c28.05,56.55,60.43,83.74,82.65,96.6c6.06,3.5,10,12.37,13.81,20.94c2.81,6.33,5.47,12.3,9.14,16.85
					c7.64,9.45,17.52,2.88,24.73-1.92C482.21,569.33,485.53,567.13,488.64,565.95z"/>
			</g>
			<g>
				<path class="st0" d="M379.38,261.8c-12.17,6.62-24.92,12.17-38.06,16.57c-1.06,4.43-5.43,7.12-8.31,10.65
					c-3.87,4.76-5.09,11.21-8.79,16.11c-0.54,0.72-1.18,1.43-2.03,1.74c-2.18,0.78-4.22-1.36-5.54-3.26
					c-2.56-3.65-5.17-7.41-6.27-11.73c-0.79-3.12-0.75-6.39-1.48-9.52c-0.64-2.78-1.87-5.37-2.92-8.02
					c-5.01-12.61-6.12-26.43-5.97-40c0.12-11.27,0.46-23.35,2.96-34.39c0.64-2.84,2.47-8.81,6.27-6.11
					c2.33,1.66,4.4,10.43,5.89,13.27c8.56,16.29,21.21,30.37,36.37,40.78C360.09,253.8,369.49,258.53,379.38,261.8z"/>
			</g>
		</g>
		<g id="OMBRE_x5F_VISAGE_x5F_D_00000160896697792357850230000001414708505832225948_">
			<g>
				<path class="st8" d="M525.74,341.99c0-38.4,0-63.99,0-81.05c0-17.06,14.29-69.03,75-69.03s67.45,43.64,67.45,43.64
					s-8.35-33.33-67.45-33.33s-75,59.51-75,59.51"/>
				<path class="st0" d="M525.75,342.99c-0.55,0-1-0.45-1-1v-80.24c0-0.01,0-0.03,0-0.04v-0.77c0-7.9,3.14-25.54,14.93-41.51
					c9.6-13.01,27.99-28.52,61.07-28.52c17.52,0,41.68,3.85,57.25,22.17c9.35,11,11.12,21.86,11.19,22.31
					c0.08,0.53-0.27,1.03-0.79,1.13c-0.51,0.11-1.04-0.22-1.17-0.73c-0.02-0.08-2.17-8.22-11.37-16.26
					c-15.43-13.48-38.49-16.31-55.12-16.31c-30.12,0-48.64,15.97-58.87,29.36c-10.58,13.85-14.72,27.84-15.13,29.28v80.12
					C526.75,342.55,526.3,342.99,525.75,342.99z M600.75,192.91c-54,0-70.24,41.45-73.39,61.24c2.36-5.81,6.47-14.33,12.93-22.78
					c10.5-13.75,29.52-30.15,60.46-30.15c17.02,0,40.65,2.93,56.55,16.91c2.3,2.02,4.17,4.04,5.69,5.94
					c-1.58-3.05-3.71-6.42-6.58-9.78C648.08,204.54,631.66,192.91,600.75,192.91z"/>
			</g>
			<g>
				<path class="st3" d="M526.11,429.49c0,0-0.35,31.12,14.42,42.74c7.39,5.81,24.4,6.73,26.05,0s-0.2-11.37-0.2-11.37l-21.14-11.56
					L526.11,429.49z"/>
			</g>
			<g>
				<path class="st0" d="M680.45,247.19c1.87,12.35-1.98,25.81-11.31,34.11c-0.6-23.35-9.69-46.35-25.01-63.96
					c-3.67-4.21-16.67-11.38-7.86-13.78c8.62-2.34,19.29,5.7,25.03,10.76C670.94,222.85,678.5,234.29,680.45,247.19z"/>
			</g>
			<g id="TECH_x5F_ROBOT_00000071556578320797693600000004273724447582948256_">
				<path class="st3" d="M540.99,291.28L540.99,291.28c-1.95,0-3.53-1.58-3.53-3.53V253.6c0-1.95,1.58-3.53,3.53-3.53l0,0
					c1.95,0,3.53,1.58,3.53,3.53v34.15C544.52,289.7,542.94,291.28,540.99,291.28z"/>
				<path class="st0" d="M540.99,292.28c-2.5,0-4.53-2.03-4.53-4.53V253.6c0-2.5,2.03-4.53,4.53-4.53s4.53,2.03,4.53,4.53v34.15
					C545.52,290.25,543.49,292.28,540.99,292.28z M540.99,251.07c-1.39,0-2.53,1.13-2.53,2.53v34.15c0,1.39,1.13,2.53,2.53,2.53
					s2.53-1.13,2.53-2.53V253.6C543.52,252.21,542.38,251.07,540.99,251.07z"/>
			</g>
		</g>
		<g id="BLANC_00000054982047044815209420000009454971691342338478_">
			<g class="st6">
				<path class="st7" d="M549.82,490.64c-7.66,2.63-15.41,5.75-19.36,8.17c-0.48,0.29-0.9,0.58-0.88,0.73
					c0.02,0.18,0.68,0.14,1.31,0.09c1.43-0.11,3.04-0.25,5.45-0.9c1.83-0.5,3.8-1.2,5.68-1.88c7.05-2.53,14.09-5.07,21.14-7.6
					c3.76-1.35,7.74-2.8,10.44-4.14C585.97,478.95,555.3,488.76,549.82,490.64z"/>
			</g>
			<g class="st6">
				<polygon class="st9" points="575.23,96.39 575.64,109.92 551.88,101.07 551.88,87.23 				"/>
			</g>
			<g class="st6">
				<polygon class="st9" points="585.94,85.71 585.94,96.7 575.64,109.92 575.23,96.39 				"/>
			</g>
			<g class="st6">
				<rect x="524.48" y="80.46" class="st9" width="7.54" height="13.53"/>
			</g>
			<g class="st6">
				<path class="st9" d="M585.94,85.71V96.7c0,0,48.7,3.92,77.88,47.01C663.82,143.7,644.2,104.14,585.94,85.71z"/>
			</g>
			<g>
				<path class="st7" d="M601.76,377.81c2.56,1.11,4.76,3.35,5.51,5.97c0.23,0.82,0.33,1.67,0.24,2.54
					c-2.42,0.49-4.84,0.98-7.26,1.47C591.26,389.61,591.99,373.57,601.76,377.81z"/>
			</g>
			<g class="st6">
				
					<ellipse transform="matrix(0.0929 -0.9957 0.9957 0.0929 223.7823 904.1516)" class="st7" cx="608.1" cy="329.26" rx="8.42" ry="24.06"/>
			</g>
			
				<ellipse transform="matrix(0.1438 -0.9896 0.9896 0.1438 353.4821 691.3806)" class="st7" cx="576.31" cy="141.4" rx="3.48" ry="22.51"/>
			<ellipse class="st7" cx="610.58" cy="226.77" rx="14.64" ry="2.83"/>
		</g>
		<g>
			<path class="st1" d="M442.96,372.56c4.2,0-15.89-13.79-41.07-13.79s-32.38,10.3-32.38,10.3s10.49,23.88,32.38,23.88
				S430.97,372.56,442.96,372.56z"/>
		</g>
		<g id="VC_x5F_REFLET_x5F_VISAGE_00000051378828062563293540000013711993216842714538_">
			<g id="VC_x5F_LUEUR_x5F_OEIL_x5F_G_00000172427755865486337260000011551102930309551542_">
				<path class="st2" d="M415.31,363.66c-1.16-0.55-2.76-2.29-4.03-2.48c-2.03-0.31-2.58-1.96-4.6-2.27
					c-4.95-0.75-11.74,1.56-15.64,4.71c-2.74,2.22-3.95,5.84-4.48,9.33c-0.79,5.18-0.16,11.07,3.66,14.66
					c1.84,1.72,4.21,4.07,6.63,4.75c5.88,1.64,12.54,0.07,17.71-3.16c4.81-3.01,7.36-8.43,7.25-14.03
					C421.75,371.1,419.11,365.46,415.31,363.66z"/>
			</g>
			<g>
				<path class="st2" d="M469.55,435.42c0.57-4.22,0.76-8.96-1.95-12.25c-3.7-4.48-10.62-3.92-16.31-2.77
					c-8.96,1.81-18.33,4.36-24.63,10.98c-0.89,0.93-1.72,1.97-2.1,3.2c-0.81,2.59,0.54,5.31,1.88,7.67
					c3.84,6.76,15.85,34.02,26.28,29.47C463.69,466.93,468.16,445.7,469.55,435.42z"/>
			</g>
			<g>
				<path class="st2" d="M472.06,531.28c3.02-2.04,5.93-4.4,9.42-5.44c3.49-1.04,7.84-0.36,9.82,2.7c0.69,1.07,1.04,2.43,0.59,3.62
					c-0.58,1.56-2.29,2.36-3.88,2.85c-7.43,2.29-15.55,1.2-23.03,3.33c-2.1,0.6-4.13,1.45-6.23,2.05c-0.79,0.23-1.65,0.42-2.42,0.14
					c-2.53-0.93-0.29-2.27,0.86-2.62c1.74-0.54,3.5-0.91,5.22-1.55C465.81,535.06,469.04,533.31,472.06,531.28z"/>
			</g>
			<g>
				<path class="st2" d="M477.58,550.54c-1.87,0.52-3.9,1.36-3.95,2.59c3.04,1.19,6.76,1.54,10.35,1.86
					c2.65,0.24,5.44,0.47,7.96-0.08c0.38-0.08,0.76-0.19,1-0.38c0.29-0.24,0.3-0.56,0.31-0.85c0-1.12,0.01-2.24,0.01-3.36
					c0-0.23-0.02-0.48-0.32-0.63c-0.15-0.07-0.35-0.1-0.54-0.13C487.28,548.87,482.35,549.2,477.58,550.54z"/>
			</g>
			<g>
				<path class="st2" d="M395.53,137.14c11.91-1.45,24.19-3.76,36.54-9.2c12.35-5.44,24.88-14.3,34.01-26.2
					c9.13-11.9,14.28-27,11.26-37.7c-3.23-11.46-15.32-16.02-28.33-13.27c-13.01,2.75-26.58,11.84-38.1,22.89
					s-21.26,24.04-30.69,37.01c-5.5,7.57-13.63,20.09-8.17,25.98C376.21,141.15,388.89,137.95,395.53,137.14z"/>
			</g>
			<g>
				<path class="st2" d="M375.07,299.1c-1.87-1.26-3.74-2.59-5.89-3.28c-2.15-0.69-4.68-0.62-6.45,0.78
					c-1.76,1.38-2.42,3.74-2.63,5.97c-0.84,8.92,4.52,18.08,12.71,21.71c5.16,2.29,11.01,2.47,16.65,2.13
					c5.3-0.32,23.76-6.3,14.51-14.41c-2.4-2.1-9.52-2.6-12.6-3.95C385.68,305.55,380.22,302.56,375.07,299.1z"/>
			</g>
			<g>
				<path class="st2" d="M472.84,326.51c-0.41,2.35-2.7,4.42-5.05,3.99c-0.93-0.17-1.75-0.68-2.54-1.2
					c-6.49-4.19-12.62-8.91-18.34-14.11c-3.33-3.03-8.53-5.98-2.75-6.91C451.9,307.05,474.39,317.57,472.84,326.51z"/>
			</g>
		</g>
		<g id="OEIL_x5F_G_00000139293047459918033420000017000145464196628635_">
			<g>
				<path class="st0" d="M403.93,384.77c-4.6,0-8.35-3.75-8.35-8.35c0-4.6,3.75-8.35,8.35-8.35s8.35,3.75,8.35,8.35
					C412.28,381.02,408.54,384.77,403.93,384.77z M403.93,370.07c-3.5,0-6.35,2.85-6.35,6.35s2.85,6.35,6.35,6.35
					s6.35-2.85,6.35-6.35S407.44,370.07,403.93,370.07z"/>
			</g>
			<g>
				<path class="st0" d="M403.93,395.14c-10.32,0-18.72-8.4-18.72-18.72c0-10.32,8.4-18.72,18.72-18.72s18.72,8.4,18.72,18.72
					C422.65,386.74,414.26,395.14,403.93,395.14z M403.93,359.7c-9.22,0-16.72,7.5-16.72,16.72c0,9.22,7.5,16.72,16.72,16.72
					s16.72-7.5,16.72-16.72C420.65,367.2,413.15,359.7,403.93,359.7z"/>
			</g>
			<g>
				<path class="st0" d="M414.73,388.21c-0.26,0-0.51-0.1-0.71-0.29l-5.6-5.6c-0.39-0.39-0.39-1.02,0-1.41s1.02-0.39,1.41,0l5.6,5.6
					c0.39,0.39,0.39,1.02,0,1.41C415.24,388.11,414.98,388.21,414.73,388.21z"/>
			</g>
			<g>
				<path class="st0" d="M398.74,372.22c-0.26,0-0.51-0.1-0.71-0.29l-5.6-5.6c-0.39-0.39-0.39-1.02,0-1.41s1.02-0.39,1.41,0l5.6,5.6
					c0.39,0.39,0.39,1.02,0,1.41C399.25,372.12,398.99,372.22,398.74,372.22z"/>
			</g>
			<g>
				<path class="st0" d="M409.13,372.22c-0.26,0-0.51-0.1-0.71-0.29c-0.39-0.39-0.39-1.02,0-1.41l5.6-5.6
					c0.39-0.39,1.02-0.39,1.41,0s0.39,1.02,0,1.41l-5.6,5.6C409.64,372.12,409.39,372.22,409.13,372.22z"/>
			</g>
			<g>
				<path class="st0" d="M393.14,388.21c-0.26,0-0.51-0.1-0.71-0.29c-0.39-0.39-0.39-1.02,0-1.41l5.6-5.6
					c0.39-0.39,1.02-0.39,1.41,0s0.39,1.02,0,1.41l-5.6,5.6C393.65,388.11,393.4,388.21,393.14,388.21z"/>
			</g>
			<g>
				<path class="st0" d="M419.2,377.42h-7.91c-0.55,0-1-0.45-1-1s0.45-1,1-1h7.91c0.55,0,1,0.45,1,1S419.75,377.42,419.2,377.42z"/>
			</g>
			<g>
				<path class="st0" d="M396.59,377.42h-7.91c-0.55,0-1-0.45-1-1s0.45-1,1-1h7.91c0.55,0,1,0.45,1,1S397.14,377.42,396.59,377.42z"
					/>
			</g>
			<g>
				<path class="st0" d="M403.93,370.07c-0.55,0-1-0.45-1-1v-7.91c0-0.55,0.45-1,1-1s1,0.45,1,1v7.91
					C404.93,369.62,404.49,370.07,403.93,370.07z"/>
			</g>
			<g>
				<path class="st0" d="M403.93,392.68c-0.55,0-1-0.45-1-1v-7.91c0-0.55,0.45-1,1-1s1,0.45,1,1v7.91
					C404.93,392.23,404.49,392.68,403.93,392.68z"/>
			</g>
		</g>
		<g id="CONTOUR_00000106113090484101745990000013317904394683088013_">
			<g>
				<path class="st0" d="M493.46,495.83c-0.13,0-0.26-0.02-0.38-0.08c-0.37-0.16-0.62-0.52-0.62-0.93l0.19-72.31
					c0-0.47,0.33-0.87,0.78-0.97l14.8-3.28c0.3-0.06,0.61,0.01,0.84,0.2c0.24,0.19,0.37,0.48,0.37,0.78v43.82
					c0,16.94-14.65,31.86-15.28,32.48C493.98,495.73,493.72,495.83,493.46,495.83z M494.64,423.32l-0.18,68.91
					c3.88-4.5,12.98-16.44,12.98-29.18v-42.57L494.64,423.32z"/>
			</g>
			<g>
				<path class="st0" d="M495.6,571.27c-1.71,0-2.96-1.24-2.96-2.95h2c0,1.62,2.88,1.64,5.2-3.29c1.3-2.77,2.86-8.1,2.86-17.77
					l2-0.01c0.08,5.29,1.49,20.38,6.81,20.38c4.33,0,6.38-12.52,6.66-20.41l2,0.04c-0.03,2.87,0.52,10.95,3.35,13.8
					c0.67,0.67,1.41,1,2.26,1c0.48,0,0.9-0.2,1.31-0.61c2.49-2.51,2.97-11.1,2.94-14.19l1.99-0.16c0.58,3.78,2.14,9.41,3.8,10.08
					c0.12,0.04,0.36,0.14,0.85-0.23c3.15-2.42,5.03-7.16,5.03-12.68l1.99-0.14c0.23,1.63,1.03,4.04,1.92,4.32
					c0.4,0.12,1.05-0.27,1.77-1.07c1.01-1.11,1.51-2.48,1.91-3.57c0.45-1.23,0.84-2.29,1.86-2.58c0.87-0.24,1.65,0.27,2.16,0.68
					l-1.25,1.56c-0.17-0.13-0.29-0.21-0.37-0.25c-0.16,0.26-0.37,0.84-0.53,1.28c-0.44,1.19-1.04,2.82-2.3,4.22
					c-1.32,1.46-2.62,2.02-3.84,1.64c-0.73-0.22-1.31-0.76-1.77-1.43c-0.81,4.11-2.69,7.55-5.37,9.61c-1.15,0.89-2.16,0.76-2.81,0.5
					c-1.52-0.61-2.65-2.75-3.45-5.06c-0.43,3.36-1.31,7.07-3.11,8.89c-0.79,0.8-1.71,1.21-2.73,1.21c-1.39,0-2.63-0.54-3.68-1.6
					c-1.39-1.41-2.29-3.63-2.87-5.94c-1.04,6.17-3.22,13.09-7.71,13.09c-4.34,0-6.54-5.55-7.66-11.14c-0.51,2.89-1.24,5.36-2.2,7.4
					C499.36,570.74,496.66,571.27,495.6,571.27z"/>
			</g>
			<g>
				<path class="st0" d="M518.31,548.6c-3.4,0-6.98-0.08-10.76-0.16c-4.41-0.09-8.96-0.19-13.9-0.19v-2c4.96,0,9.53,0.1,13.95,0.19
					c24.58,0.53,39.42,0.84,51.18-17.51l1.68,1.08C550,546.32,536.87,548.6,518.31,548.6z"/>
			</g>
			<g>
				<path class="st0" d="M515.04,547.33l-2-0.08c0-14.18-2.88-20.23-9.61-20.23c-7.26,0-8.79,11-8.79,20.23h-2
					c0-10.14,1.87-22.23,10.79-22.23c7.13,0,9.96,5.71,11.02,12.66c1.42-6.43,4.15-13.68,9.28-13.68c4.79,0,7.75,6.44,9.24,13.17
					c0.06-0.4,0.12-0.8,0.18-1.2c1.3-8.05,3.49-11.97,6.69-11.97c3.2,0,4.76,5.29,5.52,10.32c0.89-3.84,2.36-7.51,4.73-7.97
					c1.1-0.21,1.92-0.85,2.37-1.85c0.69-1.54,0.39-3.64-0.79-5.62l1.72-1.02c1.51,2.54,1.85,5.33,0.89,7.46
					c-0.71,1.59-2.07,2.66-3.81,3c-2.08,0.4-3.9,8.08-4.39,14.96l-2-0.07c0-7.79-1.89-17.21-4.24-17.21
					c-3.64,0-5.53,12.44-5.71,21.28l-2-0.02c0-4.5-0.89-9.85-2.33-13.96c-0.95-2.73-3.01-7.3-6.07-7.3
					C517.92,526,515.49,541.39,515.04,547.33z"/>
			</g>
			<g>
				<path class="st0" d="M493.65,583.46c-0.55,0-1-0.45-1-1v-64.09c0-0.55,0.45-1,1-1h61.01c2.29,0,5.5,0.27,6.91,2.64
					c1.85,3.12,0.16,8.75-6.03,20.1c-5.81,10.66-23.57,23.16-30.93,28.04C511,577.16,498.27,583.46,493.65,583.46z M494.65,519.36
					v62c10.37-1.72,50.67-26.7,59.14-42.22c5.57-10.21,7.44-15.8,6.06-18.12c-0.67-1.13-2.32-1.66-5.19-1.66H494.65z"/>
			</g>
			<g>
				<path class="st0" d="M493.46,496.37c-0.13,0-0.26-0.02-0.38-0.08c-0.38-0.16-0.62-0.52-0.62-0.93l0.19-65.88
					c0-0.47,0.33-0.87,0.78-0.97l14.8-3.28c0.3-0.06,0.61,0.01,0.84,0.2c0.24,0.19,0.37,0.48,0.37,0.78v37.38
					c0,16.94-14.65,31.86-15.28,32.48C493.98,496.27,493.72,496.37,493.46,496.37z M494.64,430.29l-0.18,62.48
					c3.88-4.51,12.98-16.44,12.98-29.18v-36.14L494.64,430.29z"/>
			</g>
			<g>
				<path class="st0" d="M532.01,94.99h-38.37c-0.55,0-1-0.45-1-1V80.46c0-0.55,0.45-1,1-1h38.37c0.55,0,1,0.45,1,1v13.53
					C533.01,94.55,532.57,94.99,532.01,94.99z M494.64,92.99h36.37V81.46h-36.37V92.99z"/>
			</g>
			<g>
				<path class="st10" d="M331.84,448.14c-0.41,0-0.79-0.25-0.94-0.66c-1.01-2.8-4.94-5.54-7.15-5.54c-5.48,0-12.66-7.7-19.21-20.59
					c-6.33-12.46-10.26-26.34-10.26-36.23c0-18.14-14.1-56.73-18.73-69.41c-0.7-1.93-1.21-3.32-1.45-4.03
					c-2.12-6.3,8.63-12.23,9.09-12.48c0.29-0.16,0.64-0.16,0.94-0.01c0.51,0.26,12.7,6.64,26.74,22.8c0.36,0.42,0.32,1.05-0.1,1.41
					c-0.42,0.36-1.05,0.32-1.41-0.1c-12.26-14.1-23.31-20.74-25.68-22.08c-2.94,1.72-8.92,6.12-7.68,9.82
					c0.24,0.7,0.74,2.08,1.43,3.98c4.66,12.76,18.85,51.61,18.85,70.1c0,9.59,3.85,23.13,10.04,35.33
					c6.02,11.84,12.86,19.5,17.43,19.5c3.25,0,7.81,3.46,9.03,6.87c0.19,0.52-0.08,1.09-0.6,1.28
					C332.07,448.12,331.96,448.14,331.84,448.14z"/>
			</g>
			<g>
				<path class="st10" d="M493.64,622.95c-35.96,0-78.67-31.97-117.18-87.7c-33.87-49.01-56.62-105.68-56.62-141.02
					c0-15.92-2.55-28.66-5.78-44.8c-5.07-25.34-12.01-60.04-12.01-128.16c0-0.83,0-1.67,0.02-2.49c0.01-0.81,0.02-1.64,0.04-2.46
					c0.02-0.74,0.04-1.47,0.07-2.21c0.81-22.17,5.4-43.83,13.65-64.35c0.03-0.08,0.06-0.15,0.09-0.21
					c14.13-34.99,38.1-64.82,69.31-86.28c31.97-21.98,69.46-33.6,108.4-33.6c0.55,0,1,0.45,1,1v591.27
					C494.64,622.51,494.2,622.95,493.64,622.95z M492.64,31.69c-38.18,0.2-74.91,11.68-106.27,33.24
					c-30.9,21.24-54.63,50.78-68.61,85.43c-0.02,0.05-0.04,0.1-0.07,0.14c-8.17,20.33-12.71,41.76-13.51,63.7
					c-0.03,0.73-0.05,1.46-0.07,2.18c-0.02,0.81-0.03,1.63-0.04,2.44c-0.02,0.82-0.02,1.64-0.02,2.45
					c0,67.93,6.92,102.51,11.97,127.77c3.25,16.25,5.82,29.08,5.82,45.19c0,34.97,22.61,91.18,56.26,139.88
					c37.78,54.67,79.45,86.24,114.54,86.83V31.69z"/>
			</g>
			<g>
				<path class="st0" d="M320.62,387.22c-5.7,0-12.2-14.61-12.2-27.43c0-10.56-4.32-21.14-12.83-31.43
					c-10.55-12.74-13.25-13.6-13.94-13.37c-0.07,0.02-0.28,0.3-0.32,1.2c-0.03,0.55-0.54,0.98-1.04,0.95
					c-0.55-0.02-0.98-0.49-0.95-1.04c0.08-1.65,0.64-2.66,1.69-3.01c2.14-0.72,5.69,1.4,16.11,13.99
					c8.82,10.66,13.29,21.66,13.29,32.7c0,12.86,6.45,25.43,10.2,25.43c0.55,0,1,0.45,1,1S321.18,387.22,320.62,387.22z"/>
			</g>
			<g>
				<path class="st0" d="M314.51,411.73c-0.82,0-1.67-0.2-2.55-0.6c-4.92-2.25-9.9-10.66-9.9-22.37c0-12.88-3.82-30.58-11.34-52.6
					c-0.18-0.52,0.1-1.09,0.62-1.27c0.52-0.18,1.09,0.1,1.27,0.62c7.6,22.23,11.45,40.15,11.45,53.25c0,10.75,4.5,18.61,8.74,20.55
					c1.39,0.64,2.57,0.55,3.51-0.26c0.42-0.36,1.05-0.31,1.41,0.1c0.36,0.42,0.31,1.05-0.1,1.41
					C316.71,411.34,315.65,411.73,314.51,411.73z"/>
			</g>
			<g>
				<path class="st11" d="M493.64,611.48c-0.55,0-1-0.45-1-1s0.45-1,1-1c35.55,0,77.67-29.57,115.56-81.13
					c33.64-45.78,56.25-99.68,56.25-134.12c0-16.11,2.57-28.95,5.81-45.19c5.05-25.25,11.97-59.84,11.97-127.77
					c0-0.81,0-1.63-0.02-2.43c-0.01-0.83-0.02-1.65-0.04-2.46c-0.02-0.72-0.04-1.45-0.07-2.17c-0.8-21.95-5.34-43.38-13.51-63.69
					c-0.03-0.05-0.05-0.11-0.07-0.16c-27.09-67.13-92.85-107.2-175.88-107.2c-0.55,0-1-0.45-1-1s0.45-1,1-1
					c83.86,0,150.29,40.53,177.72,108.41c0.03,0.06,0.06,0.12,0.08,0.18c8.26,20.55,12.86,42.21,13.66,64.38
					c0.03,0.73,0.05,1.46,0.07,2.2c0.02,0.83,0.03,1.65,0.04,2.47c0.02,0.81,0.02,1.65,0.02,2.47c0,68.13-6.94,102.82-12,128.16
					c-3.23,16.14-5.78,28.88-5.78,44.8c0,34.83-22.76,89.21-56.64,135.31C572.55,581.62,529.84,611.48,493.64,611.48z"/>
			</g>
			<g>
				<path class="st0" d="M525.74,317.4c0-38.4,0-22,0-56.46c0-17.06,14.29-69.03,75-69.03s67.45,43.64,67.45,43.64
					s-8.35-33.33-67.45-33.33s-75,59.51-75,59.51"/>
				<path class="st0" d="M525.75,318.4c-0.55,0-1-0.45-1-1v-55.65c0-0.02,0-0.03,0-0.04v-0.77c0-7.9,3.14-25.54,14.93-41.51
					c9.6-13.01,27.99-28.52,61.07-28.52c17.52,0,41.68,3.85,57.25,22.17c9.35,11,11.12,21.86,11.19,22.31
					c0.08,0.53-0.27,1.03-0.79,1.13c-0.51,0.11-1.04-0.22-1.17-0.73c-0.02-0.08-2.17-8.22-11.37-16.26
					c-15.43-13.48-38.49-16.31-55.12-16.31c-30.12,0-48.64,15.97-58.87,29.36c-10.58,13.85-14.72,27.84-15.13,29.28v55.53
					C526.75,317.96,526.3,318.4,525.75,318.4z M600.75,192.91c-54,0-70.24,41.45-73.39,61.24c2.36-5.81,6.47-14.33,12.93-22.78
					c10.5-13.75,29.52-30.15,60.46-30.15c17.02,0,40.65,2.93,56.55,16.91c2.3,2.02,4.17,4.04,5.69,5.94
					c-1.58-3.05-3.71-6.42-6.58-9.78C641.32,196.62,617.81,192.91,600.75,192.91z"/>
			</g>
			<g>
				<path class="st0" d="M539.01,96.49c-0.4,0-0.78-0.25-0.93-0.64c-2.35-6.01-6.39-7.69-6.43-7.7c-0.38-0.15-0.63-0.52-0.63-0.93
					V72.95c0-0.39,0.23-0.75,0.58-0.91c0.36-0.16,0.77-0.1,1.07,0.15c0.18,0.15,4.37,3.84,7.58,10.35c0.18,0.37,0.12,0.81-0.16,1.12
					c-0.03,0.03-0.05,0.05-0.08,0.08v11.75c0,0.48-0.34,0.89-0.81,0.98C539.14,96.49,539.07,96.49,539.01,96.49z M533.01,86.6
					c1.03,0.56,3.12,1.94,5,4.78v-8.51c0-0.08,0.01-0.16,0.03-0.24c-1.72-3.27-3.68-5.73-5.03-7.23V86.6z"/>
			</g>
			<g>
				<path class="st12" d="M598.54,280.08c-0.02,0-0.05,0-0.07,0c-0.55-0.04-0.96-0.52-0.92-1.07c0.32-4.36,0.71-8.17,1.1-11.86
					c1.85-17.64,3.07-29.3-9.04-63.11c-0.19-0.52,0.08-1.09,0.6-1.28c0.52-0.19,1.09,0.08,1.28,0.6
					c12.25,34.24,10.95,46.72,9.14,63.99c-0.38,3.67-0.78,7.47-1.1,11.8C599.5,279.68,599.06,280.08,598.54,280.08z"/>
			</g>
			<g>
				<path class="st12" d="M602.35,280.08c-0.02,0-0.05,0-0.07,0c-0.55-0.04-0.96-0.52-0.92-1.07c0.32-4.36,0.71-8.17,1.1-11.86
					c1.85-17.64,3.07-29.29-9.04-63.11c-0.19-0.52,0.08-1.09,0.6-1.28c0.52-0.19,1.09,0.08,1.28,0.6
					c12.25,34.24,10.95,46.72,9.14,63.99c-0.38,3.67-0.78,7.47-1.1,11.8C603.31,279.68,602.87,280.08,602.35,280.08z"/>
			</g>
			<g>
				<path class="st0" d="M585.92,191.2c-0.43,0-0.82-0.28-0.96-0.71c-0.21-0.67-20.87-66.96-45.94-92.59
					c-0.39-0.4-0.38-1.03,0.02-1.41c0.39-0.39,1.03-0.38,1.41,0.02c25.4,25.98,46.21,92.73,46.42,93.4
					c0.16,0.53-0.13,1.09-0.66,1.25C586.12,191.19,586.02,191.2,585.92,191.2z"/>
			</g>
			<g>
				<path class="st0" d="M589.49,191.2c-0.43,0-0.83-0.28-0.96-0.72c-0.19-0.65-19.33-65.57-44.38-91.21
					c-0.39-0.4-0.38-1.03,0.02-1.41c0.39-0.39,1.03-0.38,1.41,0.02c25.41,25.99,44.68,91.39,44.87,92.04
					c0.15,0.53-0.15,1.08-0.68,1.24C589.67,191.19,589.58,191.2,589.49,191.2z"/>
			</g>
			<g>
				<path class="st0" d="M529.64,506.54c-2.59,0-4.7-0.6-6.38-1.79c-4.14-2.94-4.67-8.9-4.67-13.76v-71.4c0-0.55,0.45-1,1-1
					s1,0.45,1,1v71.4c0,6.51,1.18,10.25,3.83,12.13c2.86,2.03,7.71,1.86,14.42-0.49c16.93-5.93,43.51-17.88,43.78-18
					c0.51-0.23,1.1,0,1.32,0.5c0.23,0.5,0,1.1-0.5,1.32c-0.27,0.12-26.92,12.11-43.94,18.06
					C535.66,505.87,532.38,506.54,529.64,506.54z"/>
			</g>
			<g>
				<path class="st0" d="M493.65,94.99h-38.37c-0.55,0-1-0.45-1-1V80.46c0-0.55,0.45-1,1-1h38.37c0.55,0,1,0.45,1,1v13.53
					C494.65,94.54,494.2,94.99,493.65,94.99z M456.28,92.99h36.37V81.46h-36.37V92.99z"/>
			</g>
			<g>
				<path class="st0" d="M457.57,192.91h-16.54c-0.55,0-1-0.45-1-1v-6.37c0-0.55,0.45-1,1-1h16.54c0.55,0,1,0.45,1,1v6.37
					C458.57,192.46,458.12,192.91,457.57,192.91z M442.03,190.91h14.54v-4.37h-14.54V190.91z"/>
			</g>
			<g>
				<path class="st0" d="M575.23,110.92c-0.12,0-0.24-0.02-0.35-0.06l-35.84-13.39c-0.28-0.11-0.5-0.33-0.6-0.62
					c-0.11-0.34-0.24-0.67-0.36-0.99c-0.05-0.12-0.07-0.24-0.07-0.37V82.86c0-0.33,0.16-0.64,0.43-0.82
					c0.27-0.19,0.62-0.23,0.92-0.11l0.34,0.13l35.87,13.4c0.39,0.15,0.65,0.52,0.65,0.94v13.53c0,0.33-0.16,0.63-0.43,0.82
					C575.63,110.86,575.43,110.92,575.23,110.92z M540.18,95.76l34.05,12.72v-11.4l-34.22-12.78v11
					C540.07,95.45,540.13,95.61,540.18,95.76z"/>
			</g>
			<g>
				<path class="st0" d="M493.65,252.89h-30.9c-0.43,0-0.81-0.27-0.95-0.67c-7.36-21.27-5.84-43.18-5.34-48.33h-15.43
					c-0.55,0-1-0.45-1-1v-17.34c0-0.55,0.45-1,1-1h15.54v-20.08c0-8.83-3.47-22.27-6.83-35.28c-3.21-12.45-6.25-24.2-6.25-31.68
					c0-15.49,10.67-24.91,11.12-25.3c0.29-0.26,0.71-0.32,1.07-0.15s0.58,0.52,0.58,0.91v14.27c0,0.27-0.11,0.53-0.3,0.72
					c-0.11,0.11-11.4,11.51-5.13,37.49c0,0,0,0.01,0,0.01c0.28,1.07,0.55,2.15,0.83,3.24c3.39,13.12,6.89,26.7,6.89,35.78v21.08
					c0,0.55-0.45,1-1,1h-15.54v15.34h15.54c0.29,0,0.56,0.12,0.75,0.34c0.19,0.22,0.28,0.5,0.24,0.79
					c-0.03,0.24-3.02,24.35,4.9,47.87h30.19c0.55,0,1,0.45,1,1S494.2,252.89,493.65,252.89z M454.28,75.4
					c-2.94,3.28-8.78,11.17-8.78,22.1c0,3.1,0.55,7,1.43,11.42c0.36-13.64,5.94-20.56,7.35-22.1V75.4z"/>
			</g>
			<g>
				<path class="st0" d="M684.22,221.03c-0.54,0-0.99-0.44-1-0.98c-0.08-4.57-1.12-28.71-14.02-54.77
					c-16.27-32.87-44.08-55.65-82.67-67.73l-10.52,13c-0.27,0.33-0.71,0.45-1.11,0.31c-0.4-0.14-0.67-0.52-0.67-0.94V96.39
					c0-0.27,0.11-0.52,0.29-0.71L585.22,85c0.25-0.25,0.6-0.34,0.94-0.27c0.25,0.06,24.9,6,49.28,25.57
					c22.51,18.07,49.42,51.77,49.79,109.72c0,0.55-0.44,1-0.99,1.01C684.23,221.03,684.23,221.03,684.22,221.03z M586.18,95.39
					c0.1,0,0.2,0.01,0.29,0.04c39.47,12.2,67.9,35.4,84.52,68.96c3.86,7.81,6.68,15.39,8.74,22.34
					c-7.95-37.26-28.06-60.82-45.49-74.83c-22.05-17.73-44.32-24.13-48.01-25.1l-9.99,9.99v10.29l9.17-11.33
					C585.6,95.53,585.89,95.39,586.18,95.39z"/>
			</g>
			<g>
				<path class="st0" d="M585.92,97.39c-0.55,0-1-0.45-1-1V85.71c0-0.55,0.45-1,1-1s1,0.45,1,1v10.69
					C586.92,96.94,586.47,97.39,585.92,97.39z"/>
			</g>
			<g>
				<path class="st0" d="M493.46,488.58c-5.07,0-8.12-2.86-10.8-5.38c-2.49-2.34-4.64-4.36-8.09-4.36c-1.46,0-2.64,0.34-3.42,0.99
					c-0.63,0.53-0.96,1.23-0.96,2.03c0,2,2.07,4.13,5.9,4.13c0.55,0,1,0.45,1,1s-0.45,1-1,1c-5.13,0-7.9-3.16-7.9-6.13
					c0-1.39,0.6-2.65,1.68-3.56c1.14-0.96,2.77-1.46,4.7-1.46c4.24,0,6.89,2.49,9.46,4.9c2.65,2.49,5.15,4.84,9.43,4.84
					c0.55,0,1,0.45,1,1S494.01,488.58,493.46,488.58z"/>
			</g>
			<g>
				<path class="st0" d="M477.21,494.47c-9.49,0-14.21-6.8-16.17-10.85c-3.26-6.72-3.49-14.96-0.5-18.75
					c0.34-0.43,0.97-0.51,1.4-0.17c0.43,0.34,0.51,0.97,0.17,1.4c-2.19,2.79-2.42,10.14,0.73,16.64c1.76,3.63,5.98,9.72,14.38,9.72
					c0.55,0,1,0.45,1,1S477.77,494.47,477.21,494.47z"/>
			</g>
			<g>
				<path class="st0" d="M493.46,548.57c-2.23,0-4.09-0.79-6.24-1.72c-3.58-1.53-8.03-3.44-16.54-2.32
					c-14.03,1.86-19.82,0.69-28.13-5.65c-0.44-0.33-0.52-0.96-0.19-1.4c0.33-0.44,0.96-0.53,1.4-0.19
					c7.89,6.01,13.12,7.05,26.66,5.26c9.05-1.2,13.78,0.83,17.59,2.46c2.03,0.87,3.63,1.55,5.45,1.55c0.55,0,1,0.45,1,1
					S494.01,548.57,493.46,548.57z"/>
			</g>
			<g>
				<path class="st0" d="M451.05,537.16c-0.55,0-1-0.45-1-1s0.45-1,1-1c9.38,0,16.06-4.62,21.42-8.33c3.8-2.63,7.08-4.9,10.39-4.9
					c7.83,0,11.44,4.61,11.58,4.81c0.33,0.44,0.25,1.07-0.19,1.4c-0.44,0.33-1.07,0.25-1.4-0.19c-0.14-0.18-3.21-4.02-10-4.02
					c-2.68,0-5.73,2.11-9.25,4.54C468.02,532.34,461.06,537.16,451.05,537.16z"/>
			</g>
			<g>
				<path class="st0" d="M469.18,561.07c-0.13,0-0.26-0.03-0.39-0.08c-9.3-3.96-21.8-14.34-22.32-14.78
					c-0.42-0.35-0.48-0.98-0.13-1.41c0.35-0.42,0.98-0.48,1.41-0.13c0.13,0.11,12.8,10.63,21.83,14.48c0.51,0.22,0.75,0.8,0.53,1.31
					C469.94,560.85,469.57,561.07,469.18,561.07z"/>
			</g>
			<g>
				<path class="st0" d="M493.46,568.04c-8.82,0-17.68-4.84-18.05-5.04c-0.48-0.27-0.66-0.88-0.39-1.36
					c0.27-0.48,0.88-0.66,1.36-0.39c0.09,0.05,8.79,4.79,17.08,4.79c0.55,0,1,0.45,1,1S494.01,568.04,493.46,568.04z"/>
			</g>
			<g>
				<path class="st0" d="M303.18,215.16c-0.55,0-1-0.45-1-1c0-27.92,16.84-54.42,47.42-74.61c27.63-18.25,63.83-29.15,96.83-29.15
					c0.55,0,1,0.45,1,1s-0.45,1-1,1c-32.62,0-68.41,10.77-95.72,28.81c-30,19.81-46.52,45.72-46.52,72.95
					C304.18,214.72,303.74,215.16,303.18,215.16z"/>
			</g>
			<g>
				<path class="st0" d="M303.18,222.27c-0.55,0-1-0.45-1-1c0-27.87,17.13-54.37,48.24-74.62c28.04-18.25,64.54-29.14,97.64-29.14
					c0.55,0,1,0.45,1,1s-0.45,1-1,1c-32.73,0-68.82,10.77-96.55,28.82c-30.52,19.86-47.33,45.77-47.33,72.94
					C304.18,221.83,303.74,222.27,303.18,222.27z"/>
			</g>
			<g>
				<path class="st0" d="M314.02,345.09c-0.51,0-0.94-0.38-0.99-0.9c-2.13-21.17,3.59-39.2,17.01-53.6
					c11.29-12.12,34.55-28.16,81.27-35.78c27.87-4.55,51.24-3.92,51.47-3.92c0.55,0.02,0.99,0.48,0.97,1.03
					c-0.02,0.55-0.49,1.01-1.03,0.97c-0.92-0.02-92.77-2.22-131.22,39.06c-13,13.96-18.55,31.47-16.48,52.04
					c0.05,0.55-0.35,1.04-0.9,1.1C314.09,345.09,314.05,345.09,314.02,345.09z"/>
			</g>
			<g>
				<path class="st0" d="M374.8,265.8c-0.44,0-0.85-0.3-0.97-0.75c-8.84-33.73-6.89-108.01,12.21-135.87
					c0.31-0.46,0.93-0.57,1.39-0.26c0.46,0.31,0.57,0.93,0.26,1.39c-18.82,27.44-20.68,100.86-11.93,134.23
					c0.14,0.53-0.18,1.08-0.71,1.22C374.97,265.79,374.89,265.8,374.8,265.8z"/>
			</g>
			<g>
				<path class="st0" d="M378.63,264.19c-0.43,0-0.83-0.29-0.96-0.73c-9.66-33.74-7.53-108.06,13.33-135.93
					c0.33-0.44,0.96-0.53,1.4-0.2c0.44,0.33,0.53,0.96,0.2,1.4c-20.53,27.43-22.56,100.82-13.01,134.18
					c0.15,0.53-0.16,1.08-0.69,1.24C378.82,264.18,378.72,264.19,378.63,264.19z"/>
			</g>
			<g>
				<path class="st0" d="M433.8,532.29c-0.17,0-0.34-0.04-0.5-0.13c-17.41-9.98-51-35.54-80.39-94.51
					c-16.98-34.06-26.18-67.68-23.82-76.54c0.62-2.33,1.99-2.68,2.75-2.68c5.45,0,12.74,9.68,21.96,21.94
					c11.45,15.22,25.71,34.17,37.94,34.17c9.15,0,22.41-7.03,22.41-10.01c0-0.97-4.55-1.44-8.2-1.83
					c-8.27-0.87-20.76-2.18-30.36-9.91c-3.25-2.62-3.52-2.84-2.99-3.7c0.51-0.84,1.16-0.55,3.09,0.29c3.88,1.7,14.2,6.21,25.99,6.21
					c7.16,0,12.45-2.01,17.56-3.95c8.88-3.37,17.26-6.55,33.78,0.31c2.18,0.91,4.3,1.89,6.35,2.84c6.45,2.99,12.01,5.57,14.98,3.68
					c1.91-1.22,2.84-4.37,2.84-9.63c0-9.54-7.66-15.3-18.26-23.28c-10.11-7.6-22.69-17.06-33.31-33.5
					c-4.36-6.75-5.85-6.24-5.87-6.23c-1.08,0.56-1.06,6.55,0.86,11.48c2.72,6.94,9.73,19.77,9.8,19.9c0.2,0.37,0.15,0.83-0.13,1.15
					c-0.28,0.32-0.73,0.42-1.12,0.26c-35.97-14.69-55.24,1.4-55.43,1.56c-0.33,0.28-0.8,0.32-1.17,0.1
					c-14.12-8.58-32.24-23.76-38.45-47.36c-2.59-9.86-2.25-17.87-1.77-21.97c-4.44,4.48-7.62,9.59-7.65,9.65
					c-0.19,0.31-0.54,0.49-0.9,0.47c-0.37-0.02-0.69-0.24-0.85-0.57c-0.05-0.11-5.27-11.03-10.43-24.89
					c-6.94-18.66-10.45-33.48-10.45-44.04c0-0.55,0.45-1,1-1s1,0.45,1,1c0,21.95,16.21,58.38,19.93,66.46
					c1.6-2.35,4.98-6.94,9.15-10.56c0.33-0.28,0.8-0.32,1.17-0.1c0.37,0.22,0.56,0.66,0.46,1.08c-0.02,0.1-2.32,10.37,1.31,24.07
					c3.32,12.54,12.43,30.6,36.93,45.69c3.47-2.64,21.89-14.72,54.36-2.45c-2.19-4.09-6.54-12.44-8.61-17.72
					c-1.59-4.05-2.95-12.43,0.09-13.99c2.05-1.05,4.73,1.16,8.46,6.92c10.43,16.14,22.85,25.48,32.83,32.99
					c10.65,8.01,19.06,14.34,19.06,24.88c0,6.08-1.2,9.68-3.77,11.32c-3.89,2.49-9.92-0.31-16.9-3.55
					c-2.03-0.94-4.13-1.92-6.28-2.81c-15.79-6.55-23.81-3.51-32.3-0.29c-5.28,2-10.74,4.08-18.27,4.08c-8.97,0-17.07-2.5-22.32-4.52
					c8.76,5.76,19.48,6.88,26.79,7.65c6.23,0.65,9.99,1.05,9.99,3.82c0,5.07-15.57,12.01-24.41,12.01
					c-13.23,0-27.2-18.58-39.53-34.97c-8.18-10.87-15.91-21.15-20.36-21.15c-0.43,0-0.7,0.75-0.81,1.2
					c-1.05,3.94,0.65,14.34,4.44,27.15c4.41,14.92,11.25,31.96,19.23,47.99c29.16,58.5,62.39,83.8,79.6,93.67
					c0.48,0.27,0.65,0.89,0.37,1.36C434.49,532.11,434.15,532.29,433.8,532.29z"/>
			</g>
			<g>
				<path class="st0" d="M493.64,165.47h-36.07c-0.55,0-1-0.45-1-1s0.45-1,1-1h35.07v-9.6h-36.33c-0.55,0-1-0.45-1-1s0.45-1,1-1
					h37.33c0.55,0,1,0.45,1,1v11.6C494.64,165.02,494.2,165.47,493.64,165.47z"/>
			</g>
			<g>
				<path class="st0" d="M553.8,478.37c-4.04,0-8.77-1.34-13.88-5.36c-6.32-4.97-10.74-13.83-13.12-26.33
					c-1.76-9.22-1.69-17.13-1.69-17.21c0.01-0.55,0.45-0.99,1-0.99c0,0,0.01,0,0.01,0c0.55,0.01,1,0.46,0.99,1.01
					c0,0.31-0.17,30.76,14.04,41.94c13.91,10.94,24.28,0.54,24.71,0.09c0.38-0.4,1.02-0.41,1.41-0.02c0.4,0.38,0.41,1.02,0.02,1.41
					C567.22,473.01,561.88,478.37,553.8,478.37z"/>
			</g>
		</g>
		<g id="GROS_x5F_CONTOUR_00000125589999773831283080000014431491418023921800_">
			<g>
				<path class="st0" d="M331.84,452.14c-2.05,0-3.97-1.27-4.71-3.31c-0.38-1.05-2.48-2.69-3.48-2.89
					c-15.72-0.16-33.38-39.72-33.38-60.82c0-17.43-13.91-55.52-18.48-68.04c-0.72-1.97-1.24-3.4-1.49-4.13
					c-3.06-9.1,8.6-15.98,10.97-17.27c1.45-0.79,3.21-0.81,4.68-0.05c0.54,0.28,13.38,7,27.93,23.73c1.81,2.08,1.59,5.24-0.49,7.05
					c-2.08,1.81-5.24,1.59-7.05-0.49c-9.65-11.1-18.49-17.39-22.58-19.98c-1.99,1.44-3.65,3.09-3.91,4c0.25,0.73,0.72,2,1.34,3.72
					c8.2,22.44,19.09,54.26,19.09,71.47c0,9,3.68,21.84,9.61,33.51c6.58,12.95,12.27,17.31,13.86,17.31c4.91,0,11,4.53,12.79,9.51
					c0.93,2.6-0.42,5.46-3.02,6.4C332.97,452.05,332.4,452.14,331.84,452.14z M323.74,445.94
					C323.74,445.94,323.74,445.94,323.74,445.94C323.74,445.94,323.74,445.94,323.74,445.94z"/>
			</g>
			<g>
				<path class="st0" d="M493.64,615.48c-2.76,0-5-2.24-5-5V42.15c0-2.76,2.24-5,5-5c40.95,0,79.12,9.82,110.39,28.39
					c32.42,19.25,56.96,47.74,70.99,82.41c0.06,0.14,0.11,0.26,0.15,0.35c8.42,20.93,13.11,43.04,13.93,65.68
					c0.03,0.73,0.05,1.49,0.07,2.24c0.02,0.85,0.03,1.69,0.04,2.53c0.02,0.79,0.02,1.66,0.02,2.52c0,68.52-6.98,103.44-12.08,128.94
					c-3.18,15.92-5.7,28.5-5.7,44.02c0,35.62-23.07,90.95-57.41,137.68C575.01,585.02,531.13,615.48,493.64,615.48z M498.64,47.2
					v558.08c74.53-5.98,162.81-142.76,162.81-211.05c0-16.51,2.6-29.51,5.89-45.98c5.3-26.49,11.89-59.45,11.89-126.98
					c0-0.78,0-1.56-0.02-2.33c-0.01-0.87-0.02-1.66-0.04-2.46c-0.02-0.7-0.04-1.41-0.07-2.11c-0.78-21.48-5.22-42.43-13.2-62.3
					c-0.03-0.07-0.06-0.14-0.09-0.21C639.9,87.64,577.62,48.77,498.64,47.2z M666.16,152.55c0,0,0,0.01,0.01,0.01
					C666.17,152.56,666.17,152.55,666.16,152.55z M665.84,151.91c0,0.01,0,0.01,0.01,0.02
					C665.85,151.92,665.85,151.91,665.84,151.91z"/>
			</g>
			<g>
				<path class="st0" d="M493.64,626.95c-37.29,0-81.2-32.59-120.47-89.43c-34.29-49.62-57.33-107.21-57.33-143.29
					c0-15.52-2.52-28.09-5.7-44.01c-5.1-25.5-12.09-60.42-12.09-128.95c0-0.86,0-1.73,0.02-2.59c0.01-0.78,0.02-1.62,0.04-2.46
					c0.02-0.76,0.04-1.51,0.07-2.27c0.82-22.62,5.51-44.73,13.94-65.68c0.03-0.09,0.08-0.2,0.14-0.33
					c14.43-35.67,38.88-66.08,70.71-87.96c32.64-22.44,70.91-34.3,110.67-34.3c2.76,0,5,2.24,5,5v591.27
					C498.64,624.71,496.41,626.95,493.64,626.95z M321.38,152.07c-7.97,19.84-12.42,40.8-13.2,62.28c-0.03,0.73-0.05,1.43-0.07,2.14
					c-0.02,0.79-0.03,1.59-0.04,2.38c-0.02,0.84-0.02,1.62-0.02,2.4c0,67.53,6.6,100.5,11.89,126.98c3.29,16.46,5.9,29.47,5.9,45.98
					c0,34.22,22.33,89.52,55.55,137.61c35.56,51.46,74.32,82.04,107.25,84.89V35.75c-35.93,0.95-70.41,12.13-100,32.48
					c-30.25,20.8-53.48,49.72-67.17,83.63C321.44,151.93,321.41,152,321.38,152.07z M321.12,152.55c0,0,0,0.01-0.01,0.01
					C321.12,152.56,321.12,152.55,321.12,152.55z M321.44,151.91C321.44,151.91,321.44,151.91,321.44,151.91
					C321.44,151.91,321.44,151.91,321.44,151.91z"/>
			</g>
		</g>
		<g id="TRAIT_x5F_OEIL_x5F_D_00000103235152678402061710000004622971676520079037_">
			<g>
				<path class="st0" d="M600.75,464.51c-51.45,0-93.3-41.86-93.3-93.3c0-51.45,41.86-93.3,93.3-93.3s93.3,41.85,93.3,93.3
					C694.05,422.66,652.2,464.51,600.75,464.51z M600.75,279.91c-50.34,0-91.3,40.96-91.3,91.3s40.96,91.3,91.3,91.3
					s91.3-40.96,91.3-91.3S651.09,279.91,600.75,279.91z"/>
			</g>
			<g>
				<path class="st0" d="M600.75,468.47c-51.45,0-93.3-41.86-93.3-93.3c0-51.45,41.86-93.3,93.3-93.3s93.3,41.85,93.3,93.3
					C694.05,426.61,652.2,468.47,600.75,468.47z M600.75,283.87c-50.34,0-91.3,40.96-91.3,91.3s40.96,91.3,91.3,91.3
					s91.3-40.96,91.3-91.3S651.09,283.87,600.75,283.87z"/>
			</g>
			<g>
				<path class="st0" d="M600.75,457.33c-45.3,0-82.16-36.86-82.16-82.16s36.86-82.16,82.16-82.16s82.16,36.86,82.16,82.16
					S646.05,457.33,600.75,457.33z M600.75,295.01c-44.2,0-80.16,35.96-80.16,80.16s35.96,80.16,80.16,80.16
					s80.16-35.96,80.16-80.16S644.95,295.01,600.75,295.01z"/>
			</g>
			<g>
				<path class="st0" d="M600.75,436.33c-33.73,0-61.17-27.44-61.17-61.17c0-33.73,27.44-61.17,61.17-61.17s61.17,27.44,61.17,61.17
					C661.91,408.9,634.48,436.33,600.75,436.33z M600.75,316c-32.62,0-59.17,26.54-59.17,59.17c0,32.62,26.54,59.17,59.17,59.17
					s59.17-26.54,59.17-59.17C659.91,342.54,633.37,316,600.75,316z"/>
			</g>
			<g>
				<path class="st0" d="M600.75,441.85c-36.77,0-66.69-29.92-66.69-66.69c0-36.77,29.92-66.69,66.69-66.69s66.69,29.92,66.69,66.69
					C667.43,411.94,637.52,441.85,600.75,441.85z M600.75,310.48c-35.67,0-64.69,29.02-64.69,64.69s29.02,64.69,64.69,64.69
					s64.69-29.02,64.69-64.69S636.42,310.48,600.75,310.48z"/>
			</g>
			<g>
				<path class="st0" d="M634.3,416.94c-0.26,0-0.51-0.1-0.71-0.29l-14.8-14.8c-0.39-0.39-0.39-1.02,0-1.41s1.02-0.39,1.41,0
					l14.8,14.8c0.39,0.39,0.39,1.02,0,1.41C634.81,416.84,634.56,416.94,634.3,416.94z"/>
			</g>
			<g>
				<path class="st0" d="M582.09,363.37c-0.26,0-0.51-0.1-0.71-0.29l-21.33-21.33c-0.39-0.39-0.39-1.02,0-1.41s1.02-0.39,1.41,0
					l21.33,21.33c0.39,0.39,0.39,1.02,0,1.41C582.6,363.27,582.34,363.37,582.09,363.37z"/>
			</g>
			<g>
				<path class="st0" d="M623.32,363.08c-0.26,0-0.51-0.1-0.71-0.29c-0.39-0.39-0.39-1.02,0-1.41L641.99,342
					c0.39-0.39,1.02-0.39,1.41,0s0.39,1.02,0,1.41l-19.38,19.38C623.83,362.98,623.57,363.08,623.32,363.08z"/>
			</g>
			<g>
				<path class="st0" d="M568.23,416.94c-0.26,0-0.51-0.1-0.71-0.29c-0.39-0.39-0.39-1.02,0-1.41l14.15-14.15
					c0.39-0.39,1.02-0.39,1.41,0s0.39,1.02,0,1.41l-14.15,14.15C568.74,416.84,568.48,416.94,568.23,416.94z"/>
			</g>
			<g>
				<path class="st0" d="M653.6,383.52h-27.41c-0.55,0-1-0.45-1-1s0.45-1,1-1h27.41c0.55,0,1,0.45,1,1S654.15,383.52,653.6,383.52z"
					/>
			</g>
			<g>
				<path class="st0" d="M575.3,383.52H547.9c-0.55,0-1-0.45-1-1s0.45-1,1-1h27.41c0.55,0,1,0.45,1,1S575.85,383.52,575.3,383.52z"
					/>
			</g>
			<g>
				<path class="st0" d="M600.75,356.61c-0.55,0-1-0.45-1-1v-33.46c0-0.55,0.45-1,1-1s1,0.45,1,1v33.46
					C601.75,356.16,601.3,356.61,600.75,356.61z"/>
			</g>
			<g>
				<path class="st10" d="M600.75,428.85c-0.55,0-1-0.45-1-1v-16.52c0-0.55,0.45-1,1-1s1,0.45,1,1v16.52
					C601.75,428.4,601.3,428.85,600.75,428.85z"/>
			</g>
		</g>
		<g id="OEIL_x5F_D_00000170241890423783469820000009383207441275732382_">
			<g>
				<path class="st0" d="M600.75,390.86c-4.6,0-8.35-3.75-8.35-8.35c0-4.6,3.75-8.35,8.35-8.35s8.35,3.75,8.35,8.35
					C609.1,387.12,605.35,390.86,600.75,390.86z M600.75,376.17c-3.5,0-6.35,2.85-6.35,6.35s2.85,6.35,6.35,6.35
					s6.35-2.85,6.35-6.35S604.25,376.17,600.75,376.17z"/>
			</g>
			<g>
				<path class="st0" d="M600.75,401.24c-10.32,0-18.72-8.4-18.72-18.72s8.4-18.72,18.72-18.72s18.72,8.4,18.72,18.72
					S611.07,401.24,600.75,401.24z M600.75,365.8c-9.22,0-16.72,7.5-16.72,16.72s7.5,16.72,16.72,16.72s16.72-7.5,16.72-16.72
					S609.97,365.8,600.75,365.8z"/>
			</g>
			<g>
				<path class="st0" d="M611.54,394.31c-0.26,0-0.51-0.1-0.71-0.29l-5.6-5.6c-0.39-0.39-0.39-1.02,0-1.41s1.02-0.39,1.41,0l5.6,5.6
					c0.39,0.39,0.39,1.02,0,1.41C612.05,394.21,611.8,394.31,611.54,394.31z"/>
			</g>
			<g>
				<path class="st0" d="M595.55,378.32c-0.26,0-0.51-0.1-0.71-0.29l-5.6-5.6c-0.39-0.39-0.39-1.02,0-1.41s1.02-0.39,1.41,0l5.6,5.6
					c0.39,0.39,0.39,1.02,0,1.41C596.06,378.22,595.81,378.32,595.55,378.32z"/>
			</g>
			<g>
				<path class="st0" d="M605.94,378.32c-0.26,0-0.51-0.1-0.71-0.29c-0.39-0.39-0.39-1.02,0-1.41l5.6-5.6
					c0.39-0.39,1.02-0.39,1.41,0s0.39,1.02,0,1.41l-5.6,5.6C606.46,378.22,606.2,378.32,605.94,378.32z"/>
			</g>
			<g>
				<path class="st0" d="M589.96,394.31c-0.26,0-0.51-0.1-0.71-0.29c-0.39-0.39-0.39-1.02,0-1.41l5.6-5.6
					c0.39-0.39,1.02-0.39,1.41,0s0.39,1.02,0,1.41l-5.6,5.6C590.47,394.21,590.21,394.31,589.96,394.31z"/>
			</g>
			<g>
				<path class="st0" d="M616.01,383.52h-7.91c-0.55,0-1-0.45-1-1s0.45-1,1-1h7.91c0.55,0,1,0.45,1,1S616.56,383.52,616.01,383.52z"
					/>
			</g>
			<g>
				<path class="st0" d="M593.4,383.52h-7.91c-0.55,0-1-0.45-1-1s0.45-1,1-1h7.91c0.55,0,1,0.45,1,1S593.95,383.52,593.4,383.52z"/>
			</g>
			<g>
				<path class="st0" d="M600.75,376.17c-0.55,0-1-0.45-1-1v-7.91c0-0.55,0.45-1,1-1s1,0.45,1,1v7.91
					C601.75,375.72,601.3,376.17,600.75,376.17z"/>
			</g>
			<g>
				<path class="st0" d="M600.75,398.78c-0.55,0-1-0.45-1-1v-7.91c0-0.55,0.45-1,1-1s1,0.45,1,1v7.91
					C601.75,398.33,601.3,398.78,600.75,398.78z"/>
			</g>
		</g>
		<g id="VM_x5F_MASQUE_00000069366181349834803970000013017559590059292344_">
			<path class="st3" d="M518.43,607.28c12.53,13.4,45.8,38.36,47.18,7.73c1.4-31.33,3.52-39.73,7.44-46
				c3.92-6.27-2.36-11.95-2.36-22.7c0-7.17,6.87-6.57,6.87-17.32s-4.51-5.38-4.51-18.22s3.32-70.19,4.51-83.64
				s10.75-16.73,27.18-11.05c16.43,5.68,21.21,7.47,21.21,7.47s9.41-28.6,20.9-61.07s24.48-65.45,25.48-91.43
				c1-25.98,57.96-64.45,57.96-112.41s-25.98-68.95-34.97-77.94s-1.5-15.49,8.99-5c10.49,10.49,56.46,41.47,56.46,149.39
				c0,68.95-9.2,100.73-14.19,118.58c-5,17.85-20.43,18.38-36.27,90.76c-3,13.7-11.99,25.98-11.99,25.98s-8.66-10.72-19.88-19.07
				c-9.56,68.02-84.15,193.19-122.26,193.19c-19.69,0-43.33-25.57-43.33-25.57L518.43,607.28z"/>
			<path class="st0" d="M575.26,524.72c-0.53-11.98-3.32-23.85-2.91-35.84c0.3-8.96,2.38-17.75,3.92-26.58
				c2.95-16.92,3.95-34.18,2.97-51.32c-5.32-0.04-9.96,4.1-12.14,8.95c-2.18,4.85-2.41,10.33-2.57,15.65
				c-0.86,29.29-0.73,58.69-4.5,87.75c-1.37,10.58-3.26,21.09-4.49,31.68c-2.06,17.72-2.27,35.59-2.48,53.43
				c-0.07,5.62,4.09,18.72,9.41,8.99c3.97-7.27,2.48-19.12,3.7-27.14C569.48,568.5,576.23,546.98,575.26,524.72z"/>
		</g>
		<g id="VC_x5F_REFLET_x5F_MASQUE_00000051363110625639800150000007480248196178660490_">
			<g>
				<path class="st1" d="M669.26,332.24c-1.2,3.74-2.4,7.54-2.53,11.47c8.61-13.74,18.34-26.79,29.06-38.97
					c3.59-4.08,7.38-8.22,9.09-13.38c1.75-5.31,0.05-11.37-6.06-12.19c-6.26-0.84-8.86,5.07-11.7,9.68
					C678.87,302.25,674.01,317.34,669.26,332.24z"/>
			</g>
			<g>
				<path class="st1" d="M665.64,380.83c-0.67,1.61,5.67-3.22,12.26,4.6c6.59,7.81,34.77,6.13,34.77-15.32
					C712.67,370.1,674.37,359.84,665.64,380.83z"/>
			</g>
			<g>
				<path class="st1" d="M593.41,431.29c-3.36,2.12-4.48,6.41-5.31,10.29c-1.35,6.36-2.12,14.21,3.01,18.2
					c2.69,2.09,6.29,2.45,9.51,3.58c7.41,2.59,12.55,9.15,17.9,14.89c2.09,2.24,4.54,4.53,7.59,4.82c4.17,0.39,7.64-3.03,10.25-6.31
					c6.68-8.35,28.16-34.4,12.2-42.29c-6.72-3.32-15.61-2.49-22.83-2.18c-5.91,0.25-11.57,0.33-17.43-0.67
					C603.55,430.82,597.94,428.42,593.41,431.29z"/>
			</g>
			<g>
				<path class="st1" d="M589.9,531.93c-1.15-0.68-2.36-1.28-3.67-1.53c-0.45-0.09-0.92-0.13-1.37-0.02
					c-0.5,0.12-0.94,0.41-1.34,0.74c-2.53,2.07-3.56,5.42-4.45,8.57c-0.11,0.37-0.21,0.77-0.08,1.14c0.17,0.47,0.71,0.71,1.2,0.72
					c0.5,0,0.97-0.19,1.44-0.37c2.17-0.82,4.44-1.35,6.75-1.58c1.83-0.18,5.04,0.58,6.6-0.42
					C598.6,536.88,591.6,532.93,589.9,531.93z"/>
			</g>
			<g>
				<path class="st1" d="M581.66,549.07c2.98-0.99,6.17-1.06,9.31-1.11c1.22-0.02,2.68,0.09,3.27,1.15
					c0.37,0.66,0.24,1.51-0.12,2.17c-0.37,0.66-0.95,1.18-1.52,1.68c-1.92,1.68-3.89,3.34-6.12,4.59s-4.75,2.08-7.31,1.99
					c-1.18-0.04-2.07-6.18-2.1-7.1C576.98,549.66,579.34,549.85,581.66,549.07z"/>
			</g>
		</g>
		<g id="ORANGE_x5F_MASQUE_x5F_D_00000059996632551680449560000004800975788333835140_">
			<g>
				<path class="st2" d="M733.32,175.12c0.55,29.41-17.66,58.33-44.41,70.55c-2.01-6.66,4.09-12.68,8.82-17.78
					c6.14-6.63,10.77-14.5,15.35-22.29c4.26-7.25,8.57-14.61,10.83-22.71c2.37-8.47,5.93-16.44,5.95-25.23
					c0.01-4.66-0.5-16.72-1.3-21.35C730.71,148.85,733.11,162.35,733.32,175.12z"/>
			</g>
			<g>
				<path class="st2" d="M675.41,374.62c-0.89,0.8-1.74,1.94-1.45,3.1c0.36,1.45,2.15,1.93,3.63,2.07c1.8,0.17,3.6,0.22,5.4,0.26
					c0.81,0.02,1.63,0.04,2.41-0.18c1.18-0.34,2.14-1.21,2.92-2.16c0.78-0.94,1.45-2.04,1.56-3.26
					C690.56,367.28,677.84,372.43,675.41,374.62z"/>
			</g>
			<g>
				<path class="st2" d="M614.36,435.2c-3.83-0.89-7.67-1.79-11.5-2.68c-1.49-0.35-3.02-0.7-4.4-0.49
					c-12.33,1.82-8.39,23.31,6.47,24.26c6.81,0.44,11.71-2.88,15.44-7.1c1.97-2.23,6.17-6.09,4.21-9.39
					C622.95,437.05,616.92,435.8,614.36,435.2z"/>
			</g>
		</g>
		<g id="FONCE_x5F_MASQUE_x5F_D_00000096753782091292344770000000879595812594027199_">
			<g>
				<polygon class="st0" points="518,606.31 563.22,579.7 571.51,607.28 562.56,628.55 551.1,631.04 534.95,623.86 520.55,613.61 
									"/>
			</g>
			<g>
				<path class="st10" d="M758.88,267.15c-2.78,39.5-8.97,60.98-12.75,74.48c-4.99,17.85-20.43,18.38-36.26,90.76
					c-3,13.7-11.99,25.98-11.99,25.98c20.62-48.18,1.96-51.42-6.88-53.05c-8.85-1.64-16.05-4.75-19.14-10.49
					c-3.08-5.73,0-3.77,0-3.77c2.2,3.84,14.83,15.54,31.27,6.58c20.48-11.15,18.1-31.81,20.48-37.67c2.38-5.85,7.5-3.84,20.3-32.91
					C755.53,300.68,758.44,272.2,758.88,267.15z"/>
			</g>
			<g>
				<path class="st0" d="M744.63,312.92c-10.3,12.31-26.82,17.01-42.21,21.57c-15.39,4.56-31.83,10.48-40.53,23.96
					c12.24,1.29,24.48,2.57,36.71,3.86c9.25,0.97,19.58,2.52,25.22,9.92c14.02-8.55,19.31-25.97,23.5-41.84
					c1.55-5.87,3.1-11.73,4.64-17.6c0.92-3.49,5.33-12.99,4.19-16.32C754.36,291.2,747.39,310.16,744.63,312.92z"/>
			</g>
			<g>
				<path class="st0" d="M646.02,515.59c-7.99,15.11-16.37,30.17-27.42,43.22c-11.05,13.04-25.04,24.08-41.37,29.13
					c-4.07,1.26-8.74,2.5-10.76,6.26c-0.98,1.81-1.15,3.94-1.3,5.99c-0.75,10.23-1.5,20.46-2.25,30.7
					c7.16-1.31,12.93-6.49,18.1-11.61c19.35-19.14,36.35-40.65,50.58-63.85c7.18-11.7,13.65-23.83,19.37-36.31
					c3.42-7.47,14.71-25.43,10.58-33.3C655.4,494.76,651.14,505.91,646.02,515.59z"/>
			</g>
			<g>
				<path class="st0" d="M758.94,267.42c0,0-2.23,31.62-15.03,60.69c-12.8,29.07-17.92,27.06-20.3,32.91
					c-2.38,5.85,0,26.51-20.48,37.67c-16.45,8.96-29.07-2.74-31.27-6.58c0,0-3.08-1.96,0,3.77c3.08,5.73,10.29,8.84,19.13,10.48
					c8.84,1.64,27.5,4.88,6.88,53.05"/>
			</g>
		</g>
		<g id="FONCE_x5F_CONTOUR_x5F_MASQUE_x5F_D_00000060712808735953973420000007169651814351044539_">
			<g>
				<path class="st10" d="M555.74,634.54c-19.89,0-43.09-24.83-44.07-25.89c-0.23-0.25-0.32-0.61-0.23-0.94
					c0.09-0.33,0.35-0.6,0.68-0.69l5.59-1.66c0.36-0.11,0.76,0,1.01,0.28c10.05,10.75,29.4,25.01,39.02,21.46
					c3.94-1.46,6.11-5.86,6.43-13.1c1.41-31.45,3.57-40.05,7.59-46.48c1.98-3.17,1.03-6.18-0.28-10.33
					c-1.04-3.3-2.23-7.05-2.23-11.84c0-3.59,1.6-5.49,3.15-7.34c1.83-2.18,3.72-4.43,3.72-9.99c0-4.82-0.89-6.08-1.92-7.54
					c-1.21-1.72-2.59-3.66-2.59-10.69c0-12.52,3.3-70.04,4.52-83.73c0.52-5.87,2.62-10.04,6.25-12.38
					c4.82-3.12,12.31-2.96,22.26,0.48c12.33,4.26,18.15,6.35,20.26,7.12c1.75-5.31,10.4-31.33,20.59-60.11
					c1.4-3.97,2.83-7.95,4.26-11.92c9.98-27.81,20.3-56.57,21.17-79.22c0.43-11.18,10.67-24.29,22.53-39.46
					c16.6-21.25,35.42-45.33,35.42-72.91c0-43.83-21.81-64.82-32.29-74.91c-0.88-0.85-1.69-1.62-2.39-2.32
					c-4.87-4.87-5.1-8.99-3.18-10.91c1.24-1.24,3.32-1.53,5.69-0.78c2.48,0.77,5.21,2.6,7.89,5.29c0.91,0.91,2.13,2.01,3.54,3.28
					c14.55,13.13,53.21,48.02,53.21,146.81c0,68.05-9.11,100.57-14,118.04l-0.23,0.81c-1.62,5.79-4.29,9.78-7.68,14.83
					c-7.08,10.57-17.78,26.54-28.58,75.87c-3.01,13.75-11.79,25.85-12.16,26.36c-0.18,0.25-0.47,0.4-0.78,0.41
					c-0.29,0.01-0.61-0.13-0.8-0.37c-0.08-0.1-8.02-9.87-18.36-17.88c-4.94,32-24.55,79.14-50.31,120.81
					C600.72,607.79,573.55,634.54,555.74,634.54z M514.28,608.46c4.9,4.97,24.84,24.08,41.47,24.08
					c37.91,0,111.96-126.1,121.27-192.33c0.05-0.35,0.28-0.65,0.6-0.78c0.33-0.14,0.7-0.09,0.98,0.12
					c9.18,6.84,16.74,15.33,19.2,18.23c2.19-3.24,8.67-13.49,11.09-24.55c10.87-49.7,21.7-65.86,28.87-76.56
					c3.28-4.9,5.88-8.77,7.41-14.26l0.23-0.81c4.87-17.38,13.93-49.72,13.93-117.5c0-97.9-38.18-132.36-52.55-145.33
					c-1.43-1.29-2.66-2.4-3.61-3.35c-3.11-3.1-5.56-4.32-7.07-4.79c-1.64-0.51-2.98-0.41-3.68,0.29c-1.22,1.22-0.52,4.39,3.18,8.08
					c0.69,0.69,1.48,1.45,2.36,2.3c10.68,10.28,32.91,31.67,32.91,76.35c0,28.27-19.04,52.64-35.85,74.14
					c-11.65,14.9-21.71,27.78-22.11,38.31c-0.88,22.96-11.25,51.86-21.28,79.82c-1.42,3.97-2.85,7.94-4.25,11.91
					c-11.36,32.09-20.8,60.76-20.9,61.05c-0.08,0.26-0.27,0.47-0.52,0.59c-0.25,0.12-0.53,0.13-0.78,0.04
					c-0.05-0.02-4.97-1.86-21.18-7.46c-9.34-3.23-16.24-3.46-20.52-0.69c-3.08,2-4.88,5.66-5.34,10.88
					c-1.21,13.66-4.51,71.06-4.51,83.55c0,6.39,1.13,7.99,2.22,9.53c1.13,1.59,2.29,3.24,2.29,8.69c0,6.28-2.22,8.93-4.19,11.27
					c-1.5,1.79-2.68,3.19-2.68,6.05c0,4.49,1.13,8.07,2.13,11.24c1.36,4.31,2.54,8.04,0.07,11.99c-3.83,6.14-5.9,14.51-7.29,45.52
					c-0.36,8.12-2.97,13.12-7.74,14.88c-11.02,4.07-30.62-10.86-40.74-21.52L514.28,608.46z"/>
			</g>
			<g>
				<path class="st0" d="M660.91,321.59c-0.11,0-0.22-0.02-0.33-0.06c-0.52-0.18-0.8-0.75-0.62-1.27
					c0.14-0.41,14.49-40.95,49.48-77.24c36.56-37.92,47.9-77.83,32.8-115.41c-0.21-0.51,0.04-1.09,0.55-1.3
					c0.51-0.21,1.1,0.04,1.3,0.55c15.42,38.37,3.94,79.01-33.22,117.55c-34.67,35.96-48.89,76.11-49.03,76.51
					C661.71,321.33,661.33,321.59,660.91,321.59z"/>
			</g>
			<g>
				<path class="st13" d="M697.88,460.42h-7.91c-0.3,0-0.59-0.14-0.78-0.37c-0.04-0.06-4.62-5.64-13.03-11.32
					c-0.33-0.22-0.49-0.61-0.43-1l1.28-7.55c0.06-0.34,0.29-0.63,0.61-0.76c0.32-0.13,0.68-0.09,0.96,0.12
					c0.12,0.09,12.1,8.8,20.09,19.28c0.23,0.3,0.27,0.71,0.1,1.05C698.61,460.21,698.26,460.42,697.88,460.42z M690.44,458.42h5.38
					c-6.14-7.54-14.04-13.92-17.1-16.28l-0.9,5.3C685.01,452.38,689.29,457.08,690.44,458.42z"/>
			</g>
			<g>
				<path class="st0" d="M575.69,548.25c-1.61,0-3.38-0.16-5.61-0.56c-0.54-0.1-0.91-0.61-0.81-1.16c0.1-0.54,0.61-0.91,1.16-0.81
					c5.35,0.95,7.8,0.48,12.26-0.35c3.95-0.74,9.37-1.75,19.47-2.36c6.43-0.39,10.89-3.93,10.93-3.96c0.43-0.35,1.06-0.28,1.41,0.15
					c0.35,0.43,0.28,1.06-0.15,1.41c-0.2,0.16-5,3.98-12.07,4.4c-9.97,0.6-15.32,1.6-19.22,2.33
					C580.3,547.86,578.2,548.25,575.69,548.25z"/>
			</g>
			<g>
				<path class="st0" d="M605.12,539.09c-3.85,0-6.46-2.18-9.47-4.7c-4.14-3.46-8.82-7.38-18.58-7.38c-0.55,0-1-0.45-1-1s0.45-1,1-1
					c10.48,0,15.68,4.35,19.86,7.84c2.83,2.36,5.06,4.23,8.19,4.23c0.55,0,1,0.45,1,1S605.67,539.09,605.12,539.09z"/>
			</g>
			<g>
				<path class="st0" d="M570.69,572.7c-0.52,0-0.96-0.41-1-0.94c-0.04-0.55,0.38-1.03,0.93-1.06c16.9-1.09,27.55-18.5,27.65-18.68
					c0.28-0.47,0.9-0.63,1.37-0.34c0.47,0.28,0.63,0.9,0.34,1.37c-0.45,0.75-11.28,18.48-29.24,19.64
					C570.73,572.7,570.71,572.7,570.69,572.7z"/>
			</g>
			<g>
				<path class="st0" d="M690.45,390.69c-5.63,0-10.8-1.63-13.32-4.62c-4.31-5.11-8.35-4.37-10.3-4.01
					c-0.81,0.15-1.51,0.28-1.99-0.31c-0.16-0.2-0.4-0.64-0.12-1.3l0,0c3.74-8.98,13.32-13.77,27.71-13.85
					c10.64-0.07,20.11,2.44,20.5,2.54c0.44,0.12,0.74,0.51,0.74,0.97c0,12.17-8.43,17.06-13.45,18.9
					C697.09,390.14,693.69,390.69,690.45,390.69z M669.2,379.79c2.51,0,5.97,0.85,9.46,4.98c3.42,4.06,13.18,5.16,20.87,2.35
					c4.42-1.62,11.77-5.86,12.12-16.24c-5.23-1.24-35.98-7.71-44.52,9.09C667.71,379.88,668.41,379.79,669.2,379.79z M665.64,380.83
					l0.92,0.39c0,0,0,0,0,0L665.64,380.83l0.92,0.38L665.64,380.83z"/>
			</g>
			<g>
				<path class="st0" d="M655.7,368.59c-0.1,0-0.2-0.02-0.3-0.05c-0.53-0.17-0.82-0.73-0.65-1.25c0.07-0.22,7.24-22.08,34.01-32.89
					c6.63-2.68,13.08-4.24,19.31-5.75c9.08-2.2,16.91-4.1,22.92-8.85c0.43-0.34,1.06-0.27,1.41,0.17c0.34,0.43,0.27,1.06-0.17,1.4
					c-6.35,5.02-14.77,7.06-23.69,9.22c-6.17,1.5-12.54,3.04-19.04,5.67c-25.86,10.44-32.78,31.43-32.85,31.64
					C656.52,368.32,656.13,368.59,655.7,368.59z"/>
			</g>
			<g>
				<path class="st0" d="M581.12,494.47c-0.55,0-1-0.45-1-1c0-6.12,5.06-7.36,9.52-8.45c3.14-0.77,6.38-1.56,8.02-3.9
					c0.32-0.45,0.94-0.56,1.39-0.25s0.56,0.94,0.25,1.39c-2.07,2.95-5.68,3.84-9.18,4.69c-4.96,1.21-7.99,2.18-7.99,6.51
					C582.12,494.02,581.67,494.47,581.12,494.47z"/>
			</g>
			<g>
				<path class="st0" d="M602.28,486.43c-0.19,0-0.38-0.05-0.54-0.16c-0.46-0.3-0.6-0.92-0.29-1.38c2.86-4.41,0.1-10.7,0.07-10.76
					c-0.23-0.5,0-1.09,0.5-1.32c0.5-0.23,1.09,0,1.32,0.5c0.13,0.3,3.25,7.34-0.21,12.67C602.92,486.27,602.6,486.43,602.28,486.43z
					"/>
			</g>
			<g>
				<path class="st0" d="M697.88,460.42c-0.13,0-0.27-0.03-0.39-0.08c-0.51-0.22-0.74-0.8-0.53-1.31c9.07-21.19,11.5-36,7.21-44
					c-3.09-5.78-9.2-6.91-13.24-7.66l-0.11-0.02c-10.4-1.93-16.89-5.52-19.83-10.99c-1.58-2.95-1.87-4.4-1.02-5.2
					c0.86-0.8,2.08-0.12,2.44,0.1c0.14,0.09,0.25,0.21,0.33,0.35c1.52,2.67,13.51,15.14,29.92,6.2
					c15.5-8.44,17.56-22.64,18.79-31.13c0.38-2.59,0.67-4.63,1.24-6.04c0.83-2.03,1.98-3.23,3.44-4.75
					c3.06-3.17,8.19-8.49,16.86-28.2c12.58-28.57,14.93-60.05,14.95-60.36c0.04-0.55,0.52-0.96,1.07-0.93
					c0.55,0.04,0.97,0.52,0.93,1.07c-0.02,0.32-2.39,32.13-15.11,61.03c-8.82,20.04-14.1,25.51-17.25,28.78
					c-1.42,1.47-2.35,2.44-3.03,4.11c-0.48,1.18-0.78,3.22-1.12,5.57c-1.28,8.85-3.43,23.67-19.81,32.6
					c-14.81,8.06-27.13-0.1-31.47-5.35c0.16,0.34,0.36,0.73,0.6,1.19c2.64,4.9,8.67,8.16,18.43,9.97l0.11,0.02
					c4.42,0.82,11.09,2.05,14.64,8.68c4.65,8.69,2.32,23.65-7.13,45.73C698.64,460.19,698.27,460.42,697.88,460.42z"/>
			</g>
			<g>
				<path class="st0" d="M601.88,530.94c-4.21,0-7.21-2.23-9.48-3.92c-0.34-0.25-0.67-0.5-0.99-0.72c-0.45-0.32-0.56-0.94-0.24-1.39
					c0.32-0.45,0.95-0.56,1.39-0.24c0.33,0.23,0.67,0.49,1.02,0.75c2.49,1.85,5.59,4.15,10.11,3.36c7.38-1.28,16.83-10.5,28.1-27.41
					c12.48-18.71,23.26-31.2,31.13-40.33c7.95-9.21,13.2-15.3,14.09-20.86c0.09-0.55,0.6-0.92,1.14-0.83
					c0.55,0.09,0.92,0.6,0.83,1.14c-0.97,6.12-6.08,12.04-14.55,21.85c-7.84,9.08-18.58,21.52-30.98,40.13
					c-11.75,17.62-21.37,26.87-29.42,28.27C603.29,530.88,602.57,530.94,601.88,530.94z"/>
			</g>
			<g>
				<path class="st10" d="M555.74,638.54c-21.62,0-45.98-26.07-47-27.18c-1.17-1.27-1.61-3.05-1.15-4.72
					c0.46-1.67,1.74-2.98,3.4-3.47l5.59-1.66c1.82-0.54,3.78,0,5.07,1.38c10.91,11.67,28.05,22.89,34.71,20.44
					c2.85-1.05,3.65-5.76,3.82-9.52c1.46-32.54,3.7-41.24,8.19-48.42c0.89-1.42,0.66-2.69-0.7-7.01c-1.08-3.4-2.41-7.64-2.41-13.05
					c0-5.04,2.36-7.86,4.09-9.91c1.62-1.92,2.78-3.31,2.78-7.41c0-3.55-0.45-4.18-1.19-5.22c-1.82-2.57-3.33-5.32-3.33-13
					c0-13.58,3.38-71.13,4.53-84.08c0.64-7.16,3.35-12.34,8.06-15.39c5.99-3.88,14.4-3.86,25.74,0.05
					c7.94,2.74,13.16,4.58,16.45,5.75c3.18-9.56,10.7-31.94,19.32-56.29c1.41-3.98,2.84-7.96,4.26-11.93
					c9.88-27.52,20.09-55.99,20.94-78.02c0.48-12.47,11.09-26.05,23.38-41.77c16.21-20.74,34.57-44.25,34.57-70.45
					c0-42.13-20.98-62.32-31.07-72.03c-0.9-0.87-1.72-1.66-2.44-2.38c-6.82-6.82-6.51-13.24-3.18-16.57
					c2.33-2.33,5.87-2.97,9.71-1.77c3.14,0.98,6.34,3.09,9.53,6.28c0.84,0.84,2.02,1.91,3.39,3.14
					c14.92,13.46,54.53,49.22,54.53,149.78c0,68.6-9.21,101.46-14.15,119.12l-0.23,0.81c-1.79,6.41-4.77,10.84-8.21,15.98
					c-6.91,10.32-17.36,25.91-27.99,74.5c-3.19,14.57-12.45,27.33-12.84,27.87c-0.92,1.25-2.36,2.01-3.92,2.04
					c-1.58,0.05-3.03-0.65-4.01-1.86c-0.06-0.08-5.21-6.4-12.53-12.92c-6.53,32.12-25.39,76.23-49.63,115.44
					C618.18,587.17,583.42,638.54,555.74,638.54z M591.03,417.45c-2.26,0-4.09,0.42-5.39,1.26c-1.99,1.29-3.18,3.94-3.53,7.88
					c-1.21,13.62-4.49,70.78-4.49,83.19c0,5.12,0.69,6.09,1.49,7.22c1.66,2.34,3.03,4.78,3.03,11c0,7.74-3.08,11.41-5.12,13.84
					c-1.38,1.65-1.75,2.13-1.75,3.48c0,3.87,0.99,7,1.95,10.03c1.45,4.59,3.1,9.79-0.35,15.32c-3.38,5.42-5.34,13.64-6.68,43.58
					c-0.19,4.2-0.94,7.49-2.02,10.08c36.43-21.82,96.3-123.48,104.9-184.68c0.25-1.75,1.4-3.24,3.02-3.92
					c1.63-0.68,3.5-0.45,4.91,0.6c6.72,5,12.51,10.75,16.26,14.79c2.65-4.55,6.15-11.5,7.74-18.76
					c11.04-50.44,22.12-66.98,29.46-77.93c3.2-4.78,5.52-8.24,6.88-13.11l0.23-0.81c5.15-18.4,13.78-49.19,13.78-116.42
					c0-95.24-36.54-129.09-50.84-142.01c11.82,11.82,30.37,33.96,30.37,75.56c0,29.65-20.35,55.68-36.69,76.61
					c-10.75,13.76-20.91,26.76-21.27,36c-0.91,23.58-10.92,51.48-21.52,81.01c-1.42,3.96-2.85,7.93-4.25,11.89
					c-11.34,32.05-20.77,60.68-20.87,60.97c-0.42,1.29-1.36,2.36-2.59,2.94c-1.23,0.59-2.64,0.65-3.92,0.17
					c-0.05-0.02-4.96-1.85-21.09-7.42C598.11,418.25,594.15,417.45,591.03,417.45z"/>
			</g>
			<g>
				<path class="st0" d="M555.74,638.54c-21.62,0-45.98-26.07-47-27.18c-1.17-1.27-1.61-3.05-1.15-4.72
					c0.46-1.67,1.74-2.98,3.4-3.47l5.59-1.66c1.82-0.54,3.78,0,5.07,1.38c10.91,11.67,28.05,22.89,34.71,20.44
					c2.85-1.05,3.65-5.76,3.82-9.52c1.46-32.54,3.7-41.24,8.19-48.42c0.89-1.42,0.66-2.69-0.7-7.01c-1.08-3.4-2.41-7.64-2.41-13.05
					c0-5.04,2.36-7.86,4.09-9.91c1.62-1.92,2.78-3.31,2.78-7.41c0-3.55-0.45-4.18-1.19-5.22c-1.82-2.57-3.33-5.32-3.33-13
					c0-13.58,3.38-71.13,4.53-84.08c0.64-7.16,3.35-12.34,8.06-15.39c5.99-3.88,14.4-3.86,25.74,0.05
					c7.94,2.74,13.16,4.58,16.45,5.75c3.18-9.56,10.7-31.94,19.32-56.29c1.41-3.98,2.84-7.96,4.26-11.93
					c9.88-27.52,20.09-55.99,20.94-78.02c0.48-12.47,11.09-26.05,23.38-41.77c16.21-20.74,34.57-44.25,34.57-70.45
					c0-42.13-20.98-62.32-31.07-72.03c-0.9-0.87-1.72-1.66-2.44-2.38c-6.82-6.82-6.51-13.24-3.18-16.57
					c2.33-2.33,5.87-2.97,9.71-1.77c3.14,0.98,6.34,3.09,9.53,6.28c0.84,0.84,2.02,1.91,3.39,3.14
					c14.92,13.46,54.53,49.22,54.53,149.78c0,68.6-9.21,101.46-14.15,119.12l-0.23,0.81c-1.79,6.41-4.77,10.84-8.21,15.98
					c-6.91,10.32-17.36,25.91-27.99,74.5c-3.19,14.57-12.45,27.33-12.84,27.87c-0.92,1.25-2.36,2.01-3.92,2.04
					c-1.58,0.05-3.03-0.65-4.01-1.86c-0.06-0.08-5.21-6.4-12.53-12.92c-6.53,32.12-25.39,76.23-49.63,115.44
					C618.18,587.17,583.42,638.54,555.74,638.54z M591.03,417.45c-2.26,0-4.09,0.42-5.39,1.26c-1.99,1.29-3.18,3.94-3.53,7.88
					c-1.21,13.62-4.49,70.78-4.49,83.19c0,5.12,0.69,6.09,1.49,7.22c1.66,2.34,3.03,4.78,3.03,11c0,7.74-3.08,11.41-5.12,13.84
					c-1.38,1.65-1.75,2.13-1.75,3.48c0,3.87,0.99,7,1.95,10.03c1.45,4.59,3.1,9.79-0.35,15.32c-3.38,5.42-5.34,13.64-6.68,43.58
					c-0.19,4.2-0.94,7.49-2.02,10.08c36.43-21.82,96.3-123.48,104.9-184.68c0.25-1.75,1.4-3.24,3.02-3.92
					c1.63-0.68,3.5-0.45,4.91,0.6c6.72,5,12.51,10.75,16.26,14.79c2.65-4.55,6.15-11.5,7.74-18.76
					c11.04-50.44,22.12-66.98,29.46-77.93c3.2-4.78,5.52-8.24,6.88-13.11l0.23-0.81c5.15-18.4,13.78-49.19,13.78-116.42
					c0-95.24-36.54-129.09-50.84-142.01c11.82,11.82,30.37,33.96,30.37,75.56c0,29.65-20.35,55.68-36.69,76.61
					c-10.75,13.76-20.91,26.76-21.27,36c-0.91,23.58-10.92,51.48-21.52,81.01c-1.42,3.96-2.85,7.93-4.25,11.89
					c-11.34,32.05-20.77,60.68-20.87,60.97c-0.42,1.29-1.36,2.36-2.59,2.94c-1.23,0.59-2.64,0.65-3.92,0.17
					c-0.05-0.02-4.96-1.85-21.09-7.42C598.11,418.25,594.15,417.45,591.03,417.45z"/>
			</g>
		</g>
		<path id="EPAISSEUR_x5F_MASQUE_x5F_D_00000158725681804117166720000009424206125652106629_" class="st0" d="M599.12,408.41
			c-0.27-0.16-0.56-0.29-0.87-0.4c-10.71-3.76-21.78-7.65-29.76-2.41c-5.08,3.34-7.89,9.79-8.57,19.7
			c-0.48,6.78-1.28,21.17-2.3,39.38c-2.31,41.26-5.8,103.6-7.98,120.95c-1.11,8.83-1.29,16.31-1.43,22.33
			c-0.12,5.3-0.27,11.91-1.31,13.03c-0.03,0.01-0.39,0.16-1.48,0.07c-1.03-0.09-2.71-0.41-5.37-1.31c-1.76-0.59-3.7-0.16-5.04,1.12
			l-2.17,2.06c-1.37,1.31-1.88,3.27-1.33,5.08c0.55,1.81,2.07,3.15,3.93,3.47l12.25,2.11c0.28,0.05,0.57,0.07,0.85,0.07
			c0.64,0,1.29-0.12,1.89-0.37l10.35-4.22c0.93-0.38,1.73-1.04,2.29-1.89l6.93-10.57c0.08-0.75,0.13-1.53,0.17-2.35
			c0.31-7.03,0.66-12.87,1.05-17.75c1.29-15.9,3.04-21.69,5.63-25.83c3.45-5.52,1.81-10.73,0.36-15.32
			c-0.96-3.03-1.95-6.16-1.95-10.03c0-1.34,0.36-1.83,1.74-3.48c1.71-2.04,4.17-4.96,4.91-10.44l0.01-0.06
			c0.1-0.74,0.16-1.52,0.19-2.36c0.01-0.32,0.02-0.65,0.02-0.98c0-6.23-1.37-8.67-3.03-11.01c-0.8-1.12-1.49-2.1-1.49-7.21
			c0-12.42,3.29-69.58,4.5-83.2c0.35-3.94,1.53-6.59,3.53-7.88c1.3-0.84,3.13-1.26,5.39-1.26c0.05,0,0.11,0,0.17,0.01
			c2.72,0.01,6.06,0.63,9.88,1.83l0.5-6.16C601.74,411.19,600.76,409.37,599.12,408.41z M572.15,425.7
			c-1.16,12.95-4.54,70.51-4.54,84.09c0,7.67,1.51,10.42,3.33,12.99c0.74,1.05,1.19,1.68,1.19,5.23c0,4.1-1.17,5.49-2.79,7.41
			c-1.72,2.05-4.08,4.87-4.08,9.91c0,5.41,1.33,9.65,2.41,13.05c1.36,4.31,1.59,5.58,0.7,7c-4.46,7.15-6.71,15.8-8.17,47.94
			l-2.34,3.57c0.21-2.57,0.28-5.46,0.35-8.7c0.14-5.79,0.3-12.99,1.35-21.31c2.22-17.7,5.59-77.77,8.04-121.64
			c1.02-18.18,1.82-32.54,2.29-39.25c0.45-6.4,1.86-10.57,4.1-12.03c0.78-0.52,1.79-0.79,2.98-0.87
			C574.23,416.16,572.62,420.39,572.15,425.7z"/>
		<g id="REFLET_x5F_OEIL_00000155858644100297096850000011909893766190416031_">
			<g>
				<path class="st2" d="M543.19,337.77c1.65-3.2,3.29-6.4,4.94-9.6c-6.49,7.22-13.1,14.62-16.81,23.6
					c-4.3,10.42-5.8,27.79,0.17,37.91c2.18-1.59,1.75-5.25,1.51-7.74c-0.54-5.48-1.47-10.34-0.65-15.89
					C533.83,355.98,538.58,346.71,543.19,337.77z"/>
			</g>
			<g>
				<path class="st2" d="M628.97,313.3c3.02,1.51,6.04,3.03,9.06,4.54c0.82-0.7,0.73-2.05,0.11-2.93c-0.62-0.87-1.63-1.37-2.6-1.83
					c-8.89-4.2-20.95-9.48-30.92-7.82C610.82,308.76,621.55,309.58,628.97,313.3z"/>
			</g>
		</g>
		<g id="BLANC_x5F_02_00000075862380657318057440000000096145697143040650_">
			<g>
				<path class="st7" d="M402.92,371.91c-2.56,1.11-4.76,3.35-5.51,5.97c-0.23,0.82-0.33,1.67-0.24,2.54
					c2.42,0.49,4.84,0.98,7.26,1.47C413.42,383.7,412.69,367.67,402.92,371.91z"/>
			</g>
			<g class="st6">
				<path class="st7" d="M482.55,527.04c-1.81,0.11-3.67,0.86-4.68,2.37c-0.12,0.18-0.23,0.38-0.24,0.6
					c-0.01,0.26,0.13,0.5,0.27,0.72c0.31,0.5,0.66,1.04,1.22,1.24c0.42,0.15,0.89,0.09,1.34,0.02c1.67-0.26,3.34-0.53,5.01-0.79
					c0.89-0.14,1.84-0.31,2.5-0.92C491.03,527.48,483.84,526.96,482.55,527.04z"/>
			</g>
			<g class="st6">
				<path class="st7" d="M375.63,302.68c-0.55-0.22-1.13-0.44-1.71-0.34c-0.58,0.1-1.14,0.63-1.03,1.21
					c0.07,0.36,0.35,0.63,0.6,0.89c1.47,1.56,2.15,3.7,3.49,5.38c1.66,2.07,15.56,8.22,15.29,2.67c-0.1-2.1-4.95-3.71-6.43-4.57
					C382.5,305.99,379.21,304.13,375.63,302.68z"/>
			</g>
			<g class="st6">
				<path class="st7" d="M445.29,427.86c-3.75,0.91-7.96,2.24-9.55,5.75c-0.22,0.49-0.39,1.03-0.34,1.57
					c0.09,1.14,1.06,1.99,1.99,2.64c4.27,3,9.48,4.64,14.7,4.62c4.18-0.01,8.59-1.21,11.38-4.32c2.36-2.62,3.98-9.51,0.01-11.64
					c-2.29-1.23-6.49-0.68-8.96-0.41C451.41,426.41,448.34,427.12,445.29,427.86z"/>
			</g>
			
				<ellipse transform="matrix(0.7973 -0.6035 0.6035 0.7973 47.9502 279.4231)" class="st7" cx="440.03" cy="68.31" rx="18.26" ry="7.91"/>
		</g>
	</g>
	<path class="st0" d="M164.39,350.78c10.67,6,18.44,16.9,20.63,28.95c-5.26,3.67-12.37,2.53-18.66,1.23
		c-5.39-1.11-10.78-2.23-16.17-3.34C116.82,370.71,131.43,332.26,164.39,350.78z"/>
	<path class="st0" d="M159.79,413.87c9.71,2,18.95,10.03,18.82,19.94c-8.81,10.06-24.95,10.19-37.1,4.64
		c-6.9-3.15-21.6-11.17-16.71-19.52C128.51,412.6,153.77,412.63,159.79,413.87z"/>
	<path class="st0" d="M188.73,439.57c-2.69,8.96-2.29,18.51-3.28,27.81c-1,9.3-3.83,19.12-11.15,24.94
		c-14.89,11.85-33.5,2.05-26.92-16.01C153.84,458.57,170.6,444.19,188.73,439.57z"/>
	<path class="st0" d="M381.95,728.47c2.99-8.87,2.91-18.42,4.22-27.69c1.31-9.26,4.47-18.98,11.99-24.55
		c15.29-11.34,33.55-0.92,26.36,16.91C417.46,710.66,400.23,724.46,381.95,728.47z"/>
	<path class="st0" d="M213.77,344.83c-2.69,8.96-2.29,18.51-3.28,27.81c-1,9.3-3.83,19.12-11.15,24.94
		c-14.89,11.85-33.5,2.05-26.92-16.01C178.88,363.83,195.64,349.46,213.77,344.83z"/>
	<path class="st0" d="M329.41,637.79c-2.69,8.96-2.29,18.51-3.28,27.81c-1,9.3-3.83,19.12-11.15,24.94
		c-14.89,11.85-33.5,2.05-26.92-16.01C294.53,656.79,311.28,642.42,329.41,637.79z"/>
	<path class="st0" d="M496.24,684.55c-1.88,6.26-1.6,12.93-2.29,19.42c-0.69,6.49-2.67,13.35-7.79,17.41
		c-10.4,8.27-23.39,1.43-18.8-11.18C471.88,697.82,483.58,687.78,496.24,684.55z"/>
	<path class="st0" d="M141.06,379.78c-3.76,3.9-6.11,8.91-8.26,13.88c6.13,0.72,13.07,1.21,17.74-2.83
		c2.8-2.42,7.75-12.52,4.14-16.01C151.18,371.43,143.42,377.32,141.06,379.78z"/>
	<path class="st0" d="M49.08,439.87c-4.21,1.28-7.87,3.91-11.36,6.58c4.07,2.94,8.8,6.04,13.72,5.02c2.95-0.61,10.46-5.82,9.28-9.72
		C59.58,437.96,51.74,439.06,49.08,439.87z"/>
	<path class="st0" d="M161.78,412.4c9.26-5.16,15.9-14.79,17.41-25.28c0.1-0.68,0.16-1.42-0.21-2c-0.4-0.63-1.2-0.87-1.93-1.04
		c-12.98-2.98-32.73,2.54-39.26,15.3C128.51,417.51,150.08,418.91,161.78,412.4z"/>
	<path class="st0" d="M270.63,383.26c9.26-5.16,15.9-14.79,17.41-25.28c0.1-0.68,0.16-1.42-0.21-2c-0.4-0.63-1.2-0.87-1.93-1.04
		c-12.98-2.98-32.73,2.54-39.26,15.3C237.37,388.37,258.93,389.77,270.63,383.26z"/>
	<path class="st0" d="M146.81,442.73c-10.09,5.21-19.34,12.5-25.39,22.11c-6.05,9.61-8.63,21.7-5.45,32.61
		c6.31-3.47,12.64-6.96,18.38-11.31c5.57-4.22,10.53-9.22,15.1-14.52c5.42-6.29,18.32-19.49,18.94-28.12
		C169.38,429.63,154.45,438.78,146.81,442.73z"/>
	<path class="st0" d="M241.52,611.04c-12.21,0.87-24.7-3.95-33.16-12.79c2.37-5.97,8.93-8.92,14.89-11.3
		c5.11-2.04,10.22-4.08,15.33-6.12C270.24,568.2,279.23,608.34,241.52,611.04z"/>
	<path class="st0" d="M210.6,555.87c-9.2,3.68-21.34,2.08-26.69-6.27c1.81-13.24,15.2-22.25,28.41-24.32
		c7.49-1.17,24.18-2.58,24.7,7.09C237.41,539.69,216.31,553.58,210.6,555.87z"/>
	<path class="st0" d="M107.79,397.25c-5.26,2.11-12.2,1.19-15.26-3.58c1.03-7.57,8.69-12.72,16.24-13.9
		c4.28-0.67,13.82-1.48,14.12,4.05C123.12,388,111.05,395.95,107.79,397.25z"/>
	<path class="st0" d="M389.81,708.19c-5.4,8.31-16.1,14.11-25.04,10.58c-5.87-11.62-0.03-26.63,9.5-35.99
		c5.4-5.31,18.11-16.18,23.88-8.76C402.52,679.62,393.16,703.03,389.81,708.19z"/>
	<path class="st0" d="M254.08,633.92c-9.2,3.68-21.34,2.08-26.69-6.27c1.81-13.24,15.2-22.25,28.41-24.32
		c7.49-1.17,24.18-2.58,24.7,7.09C280.89,617.74,259.79,631.63,254.08,633.92z"/>
	<path class="st0" d="M172.3,550.36c-2.7-8.96-8.29-16.71-12.59-25.02c-4.29-8.31-7.34-18.06-4.44-26.96
		c5.9-18.09,26.83-20.17,31.29-1.47C190.94,515.28,184.88,536.51,172.3,550.36z"/>
	<path class="st0" d="M238.27,415.48c-2.7-8.96-8.29-16.71-12.59-25.02c-4.29-8.31-7.34-18.06-4.44-26.96
		c5.9-18.09,26.83-20.17,31.29-1.47C256.91,380.4,250.85,401.63,238.27,415.48z"/>
	<path class="st0" d="M351.01,722.21c-2.7-8.96-8.29-16.71-12.59-25.02c-4.29-8.31-7.34-18.06-4.44-26.96
		c5.9-18.09,26.83-20.17,31.29-1.47C369.65,687.13,363.59,708.37,351.01,722.21z"/>
	<path class="st0" d="M253.11,666.76c2.83-8.92,2.59-18.47,3.74-27.76c1.15-9.28,4.15-19.05,11.56-24.75
		c15.09-11.6,33.53-1.49,26.65,16.46C288.3,648.34,271.31,662.44,253.11,666.76z"/>
	<path class="st0" d="M495.36,761.83c-1.57-9.22-6.16-17.61-9.39-26.39c-3.23-8.78-5.04-18.83-1.06-27.3
		c8.1-17.22,29.12-16.69,31.23,2.42C518.21,729.33,509.56,749.65,495.36,761.83z"/>
	<path class="st0" d="M245.02,573.99c0.98-5.32,0.19-10.8-0.76-16.14c-5.52,2.78-11.58,6.19-13.25,12.14
		c-1,3.56,0.43,14.71,5.36,15.64C241.17,586.53,244.4,577.35,245.02,573.99z"/>
	<path class="st0" d="M339.77,664.22c0.98-5.32,0.19-10.8-0.76-16.14c-5.52,2.78-11.58,6.19-13.25,12.14
		c-1,3.56,0.43,14.71,5.36,15.64C335.92,676.77,339.15,667.58,339.77,664.22z"/>
	<path class="st0" d="M286.26,393.42c0.98-5.32,0.19-10.8-0.76-16.14c-5.52,2.78-11.58,6.19-13.25,12.14
		c-1,3.56,0.43,14.71,5.36,15.64C282.41,405.96,285.64,396.78,286.26,393.42z"/>
	<path class="st0" d="M221.98,371.02c-0.83-5.35-3.4-10.26-6.06-14.98c-4.29,4.45-8.88,9.67-8.48,15.84
		c0.24,3.69,5.28,13.74,10.24,12.98C222.5,384.13,222.51,374.4,221.98,371.02z"/>
	<path class="st0" d="M209.75,558.19c-4.89,9.41-5.12,21.1-0.6,30.69c0.29,0.62,0.65,1.27,1.27,1.55c0.68,0.3,1.48,0.07,2.18-0.2
		c12.47-4.66,25.91-20.16,24.33-34.41C234.7,535.59,215.93,546.3,209.75,558.19z"/>
	<path class="st0" d="M110.06,423.93c-8.77-2.89-18.85-1.45-26.46,3.77c-0.49,0.34-1,0.73-1.16,1.31c-0.17,0.63,0.15,1.28,0.47,1.85
		c5.75,10.07,20.94,19.45,32.97,16.11C132.96,442.22,121.13,427.58,110.06,423.93z"/>
	<path class="st0" d="M204.59,544.81c7.04-12.58,11.74-26.76,11.43-41.17c-0.31-14.41-6.03-29.02-17.03-38.35
		c-4.25,8.09-8.52,16.21-11.55,24.83c-2.95,8.37-4.71,17.12-5.84,25.93c-1.34,10.45-5.77,33.45-0.39,43.03
		C189.85,574.47,199.26,554.34,204.59,544.81z"/>
	<path class="st0" d="M96.96,404.48c-5.47-1.56-11.34-2.07-16.84-0.64c-5.5,1.43-10.59,4.96-13.17,10.03
		c3.49,0.89,7,1.79,10.58,2.17c3.48,0.37,7,0.25,10.48-0.12c4.13-0.44,13.36-0.83,16.55-3.77
		C109.69,407.44,101.11,405.66,96.96,404.48z"/>
	<path class="st0" d="M72.48,472.08c3.25,2.42,7.1,3.99,11.28,3.75c4.18-0.24,8.71-2.43,11.99-6.48c-2.11-1.46-4.23-2.92-6.55-3.94
		c-2.26-0.99-4.69-1.54-7.18-1.87c-2.95-0.39-9.35-1.78-12.41,0.24C64.7,467.03,70.01,470.24,72.48,472.08z"/>
	<path class="st0" d="M950.92,439.87c4.21,1.28,7.87,3.91,11.36,6.58c-4.07,2.94-8.8,6.04-13.72,5.02
		c-2.95-0.61-10.46-5.82-9.28-9.72C940.42,437.96,948.26,439.06,950.92,439.87z"/>
	<path class="st0" d="M892.21,397.25c5.26,2.11,12.2,1.19,15.26-3.58c-1.03-7.57-8.69-12.72-16.24-13.9
		c-4.28-0.67-13.82-1.48-14.12,4.05C876.88,388,888.95,395.95,892.21,397.25z"/>
	<path class="st0" d="M889.94,423.93c8.77-2.89,18.85-1.45,26.46,3.77c0.49,0.34,1,0.73,1.16,1.31c0.17,0.63-0.15,1.28-0.47,1.85
		c-5.75,10.07-20.94,19.45-32.97,16.11C867.04,442.22,878.87,427.58,889.94,423.93z"/>
	<path class="st0" d="M903.04,404.48c5.47-1.56,11.34-2.07,16.84-0.64c5.5,1.43,10.59,4.96,13.17,10.03
		c-3.49,0.89-7,1.79-10.58,2.17c-3.48,0.37-7,0.25-10.48-0.12c-4.13-0.44-13.36-0.83-16.55-3.77
		C890.31,407.44,898.89,405.66,903.04,404.48z"/>
	<path class="st0" d="M927.52,472.08c-3.25,2.42-7.1,3.99-11.28,3.75s-8.71-2.43-11.99-6.48c2.11-1.46,4.23-2.92,6.55-3.94
		c2.26-0.99,4.69-1.54,7.18-1.87c2.95-0.39,9.35-1.78,12.41,0.24C935.3,467.03,929.99,470.24,927.52,472.08z"/>
	<path class="st0" d="M427.6,718.87c6.09,9.58,14.17,18.15,24.28,23.32c10.11,5.17,22.39,6.66,32.96,2.53
		c-4.02-5.97-8.06-11.97-12.9-17.3c-4.7-5.18-10.12-9.67-15.8-13.74c-6.74-4.83-21.04-16.51-29.7-16.36
		C412.54,697.56,422.98,711.61,427.6,718.87z"/>
	<path class="st0" d="M441.41,721.51c11.04-2.67,21.75-7.56,29.91-15.46s13.53-19.04,13.03-30.38c-6.95,1.88-13.93,3.77-20.54,6.63
		c-6.42,2.78-12.42,6.46-18.11,10.52c-6.75,4.82-22.41,14.59-25.07,22.83C416.38,728.89,433.04,723.54,441.41,721.51z"/>
	<path class="st0" d="M434.52,723.49c5.55-9.91,9.25-21.09,9.01-32.44c-0.24-11.35-4.75-22.87-13.42-30.22
		c-3.35,6.37-6.71,12.78-9.1,19.57c-2.32,6.6-3.71,13.49-4.6,20.43c-1.05,8.23-4.55,26.35-0.31,33.9
		C422.9,746.85,430.32,730.99,434.52,723.49z"/>
	<path class="st0" d="M347.08,702.61c10.65-3.95,20.71-10.07,27.88-18.88c7.17-8.81,11.19-20.5,9.35-31.71
		c-6.68,2.69-13.39,5.38-19.61,9.01c-6.04,3.52-11.57,7.88-16.74,12.58c-6.14,5.59-20.54,17.13-22.2,25.63
		C323.1,712.89,339.02,705.61,347.08,702.61z"/>
	<path class="st0" d="M292.67,666.5c9.73-5.85,18.49-13.72,23.91-23.7c5.42-9.98,7.21-22.22,3.34-32.89
		c-6.07,3.87-12.16,7.76-17.61,12.47c-5.29,4.57-9.92,9.88-14.13,15.46c-5,6.62-17.02,20.63-17.08,29.29
		C270.99,681.03,285.3,670.94,292.67,666.5z"/>
	<path class="st0" d="M834.68,350.78c-10.67,6-18.44,16.9-20.63,28.95c5.26,3.67,12.37,2.53,18.66,1.23
		c5.39-1.11,10.78-2.23,16.17-3.34C882.25,370.71,867.64,332.26,834.68,350.78z"/>
	<path class="st0" d="M839.28,413.87c-9.71,2-18.95,10.03-18.82,19.94c8.81,10.06,24.95,10.19,37.1,4.64
		c6.9-3.15,21.6-11.17,16.71-19.52C870.57,412.6,845.3,412.63,839.28,413.87z"/>
	<path class="st0" d="M810.35,439.57c2.69,8.96,2.29,18.51,3.28,27.81c1,9.3,3.83,19.12,11.15,24.94
		c14.89,11.85,33.5,2.05,26.92-16.01C845.23,458.57,828.47,444.19,810.35,439.57z"/>
	<path class="st0" d="M617.12,728.47c-2.99-8.87-2.91-18.42-4.22-27.69c-1.31-9.26-4.47-18.98-11.99-24.55
		c-15.29-11.34-33.55-0.92-26.36,16.91C581.61,710.66,598.85,724.46,617.12,728.47z"/>
	<path class="st0" d="M785.31,344.83c2.69,8.96,2.29,18.51,3.28,27.81c1,9.3,3.83,19.12,11.15,24.94
		c14.89,11.85,33.5,2.05,26.92-16.01C820.19,363.83,803.44,349.46,785.31,344.83z"/>
	<path class="st0" d="M669.66,637.79c2.69,8.96,2.29,18.51,3.28,27.81c1,9.3,3.83,19.12,11.15,24.94
		c14.89,11.85,33.5,2.05,26.92-16.01C704.55,656.79,687.79,642.42,669.66,637.79z"/>
	<path class="st0" d="M502.83,684.55c1.88,6.26,1.6,12.93,2.29,19.42c0.69,6.49,2.67,13.35,7.79,17.41
		c10.4,8.27,23.39,1.43,18.8-11.18C527.19,697.82,515.49,687.78,502.83,684.55z"/>
	<path class="st0" d="M858.02,379.78c3.76,3.9,6.11,8.91,8.26,13.88c-6.13,0.72-13.07,1.21-17.74-2.83
		c-2.8-2.42-7.75-12.52-4.14-16.01C847.89,371.43,855.65,377.32,858.02,379.78z"/>
	<path class="st0" d="M837.29,412.4c-9.26-5.16-15.9-14.79-17.41-25.28c-0.1-0.68-0.16-1.42,0.21-2c0.4-0.63,1.2-0.87,1.93-1.04
		c12.98-2.98,32.73,2.54,39.26,15.3C870.56,417.51,848.99,418.91,837.29,412.4z"/>
	<path class="st0" d="M728.44,383.26c-9.26-5.16-15.9-14.79-17.41-25.28c-0.1-0.68-0.16-1.42,0.21-2c0.4-0.63,1.2-0.87,1.93-1.04
		c12.98-2.98,32.73,2.54,39.26,15.3C761.71,388.37,740.14,389.77,728.44,383.26z"/>
	<path class="st0" d="M852.26,442.73c10.09,5.21,19.34,12.5,25.39,22.11s8.63,21.7,5.45,32.61c-6.31-3.47-12.64-6.96-18.38-11.31
		c-5.57-4.22-10.53-9.22-15.1-14.52c-5.42-6.29-18.32-19.49-18.94-28.12C829.69,429.63,844.62,438.78,852.26,442.73z"/>
	<path class="st0" d="M757.55,611.04c12.21,0.87,24.7-3.95,33.16-12.79c-2.37-5.97-8.93-8.92-14.89-11.3
		c-5.11-2.04-10.22-4.08-15.33-6.12C728.83,568.2,719.84,608.34,757.55,611.04z"/>
	<path class="st0" d="M788.47,555.87c9.2,3.68,21.34,2.08,26.69-6.27c-1.81-13.24-15.2-22.25-28.41-24.32
		c-7.49-1.17-24.18-2.58-24.7,7.09C761.66,539.69,782.76,553.58,788.47,555.87z"/>
	<path class="st0" d="M609.26,708.19c5.4,8.31,16.1,14.11,25.04,10.58c5.87-11.62,0.03-26.63-9.5-35.99
		c-5.41-5.31-18.11-16.18-23.88-8.76C596.55,679.62,605.91,703.03,609.26,708.19z"/>
	<path class="st0" d="M744.99,633.92c9.2,3.68,21.34,2.08,26.69-6.27c-1.81-13.24-15.2-22.25-28.41-24.32
		c-7.49-1.17-24.18-2.58-24.7,7.09C718.18,617.74,739.29,631.63,744.99,633.92z"/>
	<path class="st0" d="M826.78,550.36c2.7-8.96,8.29-16.71,12.59-25.02c4.29-8.31,7.34-18.06,4.44-26.96
		c-5.9-18.09-26.83-20.17-31.29-1.47C808.14,515.28,814.2,536.51,826.78,550.36z"/>
	<path class="st0" d="M760.81,415.48c2.7-8.96,8.29-16.71,12.59-25.02c4.29-8.31,7.34-18.06,4.44-26.96
		c-5.9-18.09-26.83-20.17-31.29-1.47C742.17,380.4,748.23,401.63,760.81,415.48z"/>
	<path class="st0" d="M648.06,722.21c2.7-8.96,8.29-16.71,12.59-25.02c4.29-8.31,7.34-18.06,4.44-26.96
		c-5.9-18.09-26.83-20.17-31.29-1.47C629.42,687.13,635.48,708.37,648.06,722.21z"/>
	<path class="st0" d="M745.97,666.76c-2.83-8.92-2.59-18.47-3.74-27.76c-1.15-9.28-4.15-19.05-11.56-24.75
		c-15.09-11.6-33.53-1.49-26.65,16.46C710.77,648.34,727.77,662.44,745.97,666.76z"/>
	<path class="st0" d="M754.05,573.99c-0.98-5.32-0.19-10.8,0.76-16.14c5.52,2.78,11.58,6.19,13.25,12.14
		c1,3.56-0.43,14.71-5.36,15.64C757.91,586.53,754.67,577.35,754.05,573.99z"/>
	<path class="st0" d="M659.3,664.22c-0.98-5.32-0.19-10.8,0.76-16.14c5.52,2.78,11.58,6.19,13.25,12.14
		c1,3.56-0.43,14.71-5.36,15.64C663.16,676.77,659.92,667.58,659.3,664.22z"/>
	<path class="st0" d="M712.81,393.42c-0.98-5.32-0.19-10.8,0.76-16.14c5.52,2.78,11.58,6.19,13.25,12.14
		c1,3.56-0.43,14.71-5.36,15.64C716.67,405.96,713.43,396.78,712.81,393.42z"/>
	<path class="st0" d="M777.09,371.02c0.83-5.35,3.4-10.26,6.06-14.98c4.29,4.45,8.88,9.67,8.48,15.84
		c-0.24,3.69-5.28,13.74-10.24,12.98C776.58,384.13,776.57,374.4,777.09,371.02z"/>
	<path class="st0" d="M789.32,558.19c4.89,9.41,5.12,21.1,0.6,30.69c-0.29,0.62-0.65,1.27-1.27,1.55c-0.68,0.3-1.48,0.07-2.18-0.2
		c-12.47-4.66-25.91-20.16-24.33-34.41C764.38,535.59,783.15,546.3,789.32,558.19z"/>
	<path class="st0" d="M793.54,524.62c-5.55-9.91-9.25-21.09-9.01-32.44c0.24-11.35,4.75-22.87,13.42-30.22
		c3.35,6.37,6.71,12.78,9.1,19.57c2.32,6.6,3.71,13.49,4.6,20.43c1.05,8.23,4.55,26.35,0.31,33.9
		C805.16,547.99,797.74,532.13,793.54,524.62z"/>
	<path class="st0" d="M571.47,718.87c-6.09,9.58-14.17,18.15-24.28,23.32c-10.11,5.17-22.39,6.66-32.96,2.53
		c4.02-5.97,8.06-11.97,12.9-17.3c4.7-5.18,10.12-9.67,15.8-13.74c6.74-4.83,21.04-16.51,29.7-16.36
		C586.53,697.56,576.09,711.61,571.47,718.87z"/>
	<path class="st0" d="M557.67,721.51c-11.04-2.67-21.75-7.56-29.91-15.46s-13.53-19.04-13.03-30.38c6.95,1.88,13.93,3.77,20.54,6.63
		c6.42,2.78,12.42,6.46,18.11,10.52c6.75,4.82,22.41,14.59,25.07,22.83C582.7,728.89,566.03,723.54,557.67,721.51z"/>
	<path class="st0" d="M564.56,723.49c-5.55-9.91-9.25-21.09-9.01-32.44c0.24-11.35,4.75-22.87,13.42-30.22
		c3.35,6.37,6.71,12.78,9.1,19.57c2.32,6.6,3.71,13.49,4.6,20.43c1.05,8.23,4.55,26.35,0.31,33.9
		C576.17,746.85,568.76,730.99,564.56,723.49z"/>
	<path class="st0" d="M651.99,702.61c-10.65-3.95-20.71-10.07-27.88-18.88c-7.17-8.81-11.19-20.5-9.35-31.71
		c6.68,2.69,13.39,5.38,19.61,9.01c6.04,3.52,11.57,7.88,16.74,12.58c6.14,5.59,20.54,17.13,22.2,25.63
		C675.98,712.89,660.06,705.61,651.99,702.61z"/>
	<path class="st0" d="M706.4,666.5c-9.73-5.85-18.49-13.72-23.91-23.7c-5.42-9.98-7.21-22.22-3.34-32.89
		c6.07,3.87,12.16,7.76,17.61,12.47c5.29,4.57,9.92,9.88,14.13,15.46c5,6.62,17.02,20.63,17.08,29.29
		C728.08,681.03,713.78,670.94,706.4,666.5z"/>
</g>
</svg>
